<svg width="1033" height="497" viewBox="0 0 1033 497" fill="none" xmlns="http://www.w3.org/2000/svg">
<g clip-path="url(#clip0_1243_8)">
<path d="M78.6718 295.388C57.0109 295.388 38.4904 287.685 23.0835 272.305C7.70345 256.898 0 238.351 0 216.69V4.13367H320.914V216.69C320.914 238.351 313.211 256.898 297.804 272.278C282.424 287.685 263.904 295.362 242.216 295.362H78.6718V295.388Z" fill="#EEEEEE"/>
<path d="M695.403 113.27C695.403 131.925 688.8 147.842 675.621 161.021C662.415 174.227 646.579 180.83 628.085 180.83H515.942V290.852H374.516V0H628.112C646.606 0 662.469 6.60296 675.648 19.8089C688.854 33.0148 695.43 48.8511 695.43 67.3716V113.297L695.403 113.27Z" fill="#EEEEEE"/>
<path d="M298.636 496.215H55.7224C28.0222 496.215 5.36816 473.561 5.36816 445.861V328.296H38.9198V445.861C38.9198 455.067 46.5159 462.663 55.7224 462.663H298.636V496.215Z" fill="#B1B1B1"/>
<path d="M362.009 328.296V496.215H328.457V328.296H362.009Z" fill="#B1B1B1"/>
<path d="M407.987 328.296H701.255V361.901H407.987V328.296ZM701.255 395.479V429.031H458.342C449.135 429.031 441.539 436.654 441.539 445.834V496.188H407.987V445.834C407.987 418.133 430.641 395.479 458.342 395.479H701.255Z" fill="#B1B1B1"/>
<path d="M739.129 328.296H1032.4V361.901H902.539V496.215H868.987V361.901H739.129V328.296Z" fill="#B1B1B1"/>
<path fill-rule="evenodd" clip-rule="evenodd" d="M770.023 5.36829H1019.62C1022.92 5.36829 1024.1 7.62295 1024.1 10.9781V260.522C1024.1 263.877 1022.92 265.004 1019.62 265.004H964.488V107.634L782.423 290.825L739.719 248.094L921.81 66.0296H764.359V10.9781C764.359 7.6498 766.721 5.36829 770.049 5.36829H770.023Z" fill="#E20000" stroke="#E20000" stroke-width="10.7365" stroke-miterlimit="10"/>
</g>
<defs>
<clipPath id="clip0_1243_8">
<rect width="1032.4" height="496.215" fill="white"/>
</clipPath>
</defs>
</svg>
