<svg width="1998" height="851" viewBox="0 0 1998 851" fill="none" xmlns="http://www.w3.org/2000/svg">
<mask id="path-1-inside-1_1037_834" fill="white">
<path d="M847.986 256.688C847.986 243.155 847.472 229.45 845.759 215.916C837.022 147.221 805.673 91.031 749.997 49.4025C705.627 16.1683 654.92 0.5791 599.415 0.407789C509.82 0.236479 420.053 0.236479 330.458 0.407789C295.51 0.407789 260.392 -1.13401 225.787 1.77827C140.988 9.31593 75.5479 49.7452 32.2064 123.751C9.42208 162.639 0 205.295 0 250.178C0 366.155 1.04606e-05 481.961 0.171321 597.938C0.171321 611.129 1.02786 624.32 2.56966 637.511C14.7327 744.066 100.217 832.12 206.429 847.195C223.389 849.593 240.52 850.621 257.651 850.621C371.23 850.964 484.98 850.964 598.558 850.621C675.305 850.45 739.547 822.012 789.741 763.938C829.827 717.513 847.815 662.18 847.986 601.193C848.158 542.434 847.986 483.846 847.986 425.086C847.986 425.086 847.986 425.086 848.158 425.086C847.986 369.068 848.158 312.878 847.986 256.688Z"/>
</mask>
<path d="M847.986 256.688C847.986 243.155 847.472 229.45 845.759 215.916C837.022 147.221 805.673 91.031 749.997 49.4025C705.627 16.1683 654.92 0.5791 599.415 0.407789C509.82 0.236479 420.053 0.236479 330.458 0.407789C295.51 0.407789 260.392 -1.13401 225.787 1.77827C140.988 9.31593 75.5479 49.7452 32.2064 123.751C9.42208 162.639 0 205.295 0 250.178C0 366.155 1.04606e-05 481.961 0.171321 597.938C0.171321 611.129 1.02786 624.32 2.56966 637.511C14.7327 744.066 100.217 832.12 206.429 847.195C223.389 849.593 240.52 850.621 257.651 850.621C371.23 850.964 484.98 850.964 598.558 850.621C675.305 850.45 739.547 822.012 789.741 763.938C829.827 717.513 847.815 662.18 847.986 601.193C848.158 542.434 847.986 483.846 847.986 425.086C847.986 425.086 847.986 425.086 848.158 425.086C847.986 369.068 848.158 312.878 847.986 256.688Z" fill="#E20000"/>
<path d="M847.986 256.688C847.986 243.155 847.472 229.45 845.759 215.916C837.022 147.221 805.673 91.031 749.997 49.4025C705.627 16.1683 654.92 0.5791 599.415 0.407789C509.82 0.236479 420.053 0.236479 330.458 0.407789C295.51 0.407789 260.392 -1.13401 225.787 1.77827C140.988 9.31593 75.5479 49.7452 32.2064 123.751C9.42208 162.639 0 205.295 0 250.178C0 366.155 1.04606e-05 481.961 0.171321 597.938C0.171321 611.129 1.02786 624.32 2.56966 637.511C14.7327 744.066 100.217 832.12 206.429 847.195C223.389 849.593 240.52 850.621 257.651 850.621C371.23 850.964 484.98 850.964 598.558 850.621C675.305 850.45 739.547 822.012 789.741 763.938C829.827 717.513 847.815 662.18 847.986 601.193C848.158 542.434 847.986 483.846 847.986 425.086C847.986 425.086 847.986 425.086 848.158 425.086C847.986 369.068 848.158 312.878 847.986 256.688Z" fill="url(#paint0_radial_1037_834)" fill-opacity="0.2"/>
<path d="M847.986 256.688H846.38V256.693L847.986 256.688ZM845.759 215.916L847.352 215.715L847.352 215.714L845.759 215.916ZM749.997 49.4025L749.034 50.6879L749.035 50.6887L749.997 49.4025ZM599.415 0.407789L599.42 -1.19812L599.418 -1.19813L599.415 0.407789ZM330.458 0.407789V2.01371L330.461 2.0137L330.458 0.407789ZM225.787 1.77827L225.652 0.177993L225.645 0.178661L225.787 1.77827ZM32.2064 123.751L33.592 124.563L33.5921 124.563L32.2064 123.751ZM0.171321 597.938H1.77724L1.77724 597.936L0.171321 597.938ZM2.56966 637.511L4.16522 637.329L4.16471 637.325L2.56966 637.511ZM206.429 847.195L206.203 848.785L206.204 848.785L206.429 847.195ZM257.651 850.621L257.656 849.015H257.651V850.621ZM598.558 850.621L598.555 849.015H598.554L598.558 850.621ZM789.741 763.938L790.956 764.988L790.956 764.988L789.741 763.938ZM847.986 601.193L846.38 601.189V601.189L847.986 601.193ZM847.986 425.086H849.592V423.48H847.986V425.086ZM848.158 425.086V426.692H849.768L849.763 425.081L848.158 425.086ZM849.592 256.688C849.592 243.117 849.077 229.339 847.352 215.715L844.166 216.118C845.868 229.56 846.38 243.192 846.38 256.688H849.592ZM847.352 215.714C838.563 146.607 806.999 90.0179 750.958 48.1164L749.035 50.6887C804.346 92.0441 835.482 147.834 844.166 216.119L847.352 215.714ZM750.959 48.1172C706.291 14.6593 655.241 -1.02583 599.42 -1.19812L599.41 2.0137C654.598 2.18403 704.963 17.6774 749.034 50.6879L750.959 48.1172ZM599.418 -1.19813C509.821 -1.36944 420.052 -1.36944 330.455 -1.19813L330.461 2.0137C420.054 1.8424 509.819 1.8424 599.412 2.0137L599.418 -1.19813ZM330.458 -1.19813C295.606 -1.19813 260.347 -2.74181 225.652 0.178011L225.922 3.37853C260.437 0.473794 295.415 2.01371 330.458 2.01371V-1.19813ZM225.645 0.178661C140.34 7.7613 74.4305 48.4753 30.8206 122.94L33.5921 124.563C76.6652 51.0151 141.637 10.8706 225.929 3.37788L225.645 0.178661ZM30.8207 122.939C7.86689 162.116 -1.60592 205.064 -1.60592 250.178H1.60592C1.60592 205.526 10.9773 163.161 33.592 124.563L30.8207 122.939ZM-1.60592 250.178C-1.60592 366.155 -1.60591 481.962 -1.43459 597.941L1.77724 597.936C1.60593 481.96 1.60592 366.156 1.60592 250.178H-1.60592ZM-1.4346 597.938C-1.4346 611.199 -0.573549 624.452 0.974597 637.698L4.16471 637.325C2.62927 624.188 1.77724 611.06 1.77724 597.938H-1.4346ZM0.974099 637.693C13.2199 744.973 99.2653 833.607 206.203 848.785L206.655 845.605C101.168 830.633 16.2455 743.159 4.16521 637.329L0.974099 637.693ZM206.204 848.785C223.249 851.195 240.456 852.227 257.651 852.227V849.015C240.583 849.015 223.528 847.991 206.654 845.605L206.204 848.785ZM257.646 852.227C371.228 852.57 484.981 852.57 598.563 852.227L598.554 849.015C484.978 849.358 371.231 849.358 257.656 849.015L257.646 852.227ZM598.562 852.227C675.758 852.055 740.447 823.426 790.956 764.988L788.526 762.888C738.646 820.598 674.853 848.845 598.555 849.015L598.562 852.227ZM790.956 764.988C831.324 718.236 849.42 662.518 849.592 601.198L846.38 601.189C846.21 661.841 828.33 716.79 788.525 762.889L790.956 764.988ZM849.592 601.198C849.763 542.436 849.592 483.839 849.592 425.086H846.38C846.38 483.852 846.552 542.432 846.38 601.189L849.592 601.198ZM847.986 425.086C847.986 423.48 847.986 425.086 847.986 426.692C847.986 426.692 847.986 426.692 847.986 426.692C847.986 426.692 847.986 426.692 847.986 426.692H847.986C847.987 426.692 847.987 426.692 847.987 426.692C847.987 426.692 847.987 426.692 847.987 426.692C847.987 426.692 847.987 426.692 847.987 426.692C847.987 426.692 847.987 426.692 847.987 426.692C847.987 426.692 847.987 426.692 847.987 426.692C847.987 426.692 847.987 426.692 847.987 426.692C847.987 426.692 847.987 426.692 847.987 426.692H847.987C847.987 426.692 847.987 426.692 847.987 426.692H847.987H847.987H847.987H847.987H847.987H847.987C847.987 426.692 847.987 426.692 847.987 426.692C847.987 426.692 847.987 426.692 847.987 426.692H847.988C847.988 426.692 847.988 426.692 847.988 426.692H847.988C847.988 426.692 847.988 426.692 847.988 426.692H847.988C847.988 426.692 847.988 426.692 847.988 426.692C847.988 426.692 847.988 426.692 847.988 426.692C847.988 426.692 847.988 426.692 847.988 426.692C847.988 426.692 847.988 426.692 847.988 426.692C847.988 426.692 847.988 426.692 847.988 426.692H847.988C847.988 426.692 847.988 426.692 847.988 426.692C847.988 426.692 847.988 426.692 847.988 426.692C847.988 426.692 847.988 426.692 847.988 426.692C847.988 426.692 847.988 426.692 847.988 426.692H847.988H847.989H847.989C847.989 426.692 847.989 426.692 847.989 426.692C847.989 426.692 847.989 426.692 847.989 426.692C847.989 426.692 847.989 426.692 847.989 426.692C847.989 426.692 847.989 426.692 847.989 426.692C847.989 426.692 847.989 426.692 847.989 426.692C847.989 426.692 847.989 426.692 847.989 426.692C847.989 426.692 847.989 426.692 847.989 426.692C847.989 426.692 847.989 426.692 847.989 426.692H847.989H847.989H847.989H847.989C847.989 426.692 847.989 426.692 847.989 426.692C847.989 426.692 847.989 426.692 847.989 426.692C847.99 426.692 847.99 426.692 847.99 426.692C847.99 426.692 847.99 426.692 847.99 426.692H847.99H847.99C847.99 426.692 847.99 426.692 847.99 426.692C847.99 426.692 847.99 426.692 847.99 426.692H847.99H847.99C847.99 426.692 847.99 426.692 847.99 426.692C847.99 426.692 847.99 426.692 847.99 426.692H847.99C847.99 426.692 847.99 426.692 847.99 426.692H847.99H847.991C847.991 426.692 847.991 426.692 847.991 426.692H847.991C847.991 426.692 847.991 426.692 847.991 426.692H847.991C847.991 426.692 847.991 426.692 847.991 426.692H847.991C847.991 426.692 847.991 426.692 847.991 426.692H847.991C847.991 426.692 847.991 426.692 847.991 426.692H847.991C847.992 426.692 847.992 426.692 847.992 426.692C847.992 426.692 847.992 426.692 847.992 426.692H847.992C847.992 426.692 847.992 426.692 847.992 426.692C847.992 426.692 847.992 426.692 847.992 426.692H847.992C847.992 426.692 847.992 426.692 847.992 426.692C847.992 426.692 847.992 426.692 847.992 426.692C847.992 426.692 847.992 426.692 847.992 426.692C847.992 426.692 847.992 426.692 847.993 426.692H847.993C847.993 426.692 847.993 426.692 847.993 426.692C847.993 426.692 847.993 426.692 847.993 426.692C847.993 426.692 847.993 426.692 847.993 426.692C847.993 426.692 847.993 426.692 847.993 426.692C847.993 426.692 847.993 426.692 847.993 426.692C847.993 426.692 847.993 426.692 847.993 426.692C847.993 426.692 847.993 426.692 847.993 426.692C847.993 426.692 847.994 426.692 847.994 426.692C847.994 426.692 847.994 426.692 847.994 426.692C847.994 426.692 847.994 426.692 847.994 426.692C847.994 426.692 847.994 426.692 847.994 426.692C847.994 426.692 847.994 426.692 847.994 426.692C847.994 426.692 847.994 426.692 847.994 426.692C847.994 426.692 847.994 426.692 847.994 426.692C847.994 426.692 847.994 426.692 847.994 426.692C847.995 426.692 847.995 426.692 847.995 426.692C847.995 426.692 847.995 426.692 847.995 426.692C847.995 426.692 847.995 426.692 847.995 426.692C847.995 426.692 847.995 426.692 847.995 426.692C847.995 426.692 847.995 426.692 847.995 426.692C847.995 426.692 847.995 426.692 847.995 426.692C847.995 426.692 847.995 426.692 847.995 426.692C847.995 426.692 847.996 426.692 847.996 426.692C847.996 426.692 847.996 426.692 847.996 426.692C847.996 426.692 847.996 426.692 847.996 426.692C847.996 426.692 847.996 426.692 847.996 426.692C847.996 426.692 847.996 426.692 847.996 426.692C847.996 426.692 847.996 426.692 847.996 426.692C847.996 426.692 847.996 426.692 847.996 426.692C847.997 426.692 847.997 426.692 847.997 426.692C847.997 426.692 847.997 426.692 847.997 426.692C847.997 426.692 847.997 426.692 847.997 426.692C847.997 426.692 847.997 426.692 847.997 426.692C847.997 426.692 847.997 426.692 847.997 426.692C847.997 426.692 847.997 426.692 847.997 426.692C847.997 426.692 847.997 426.692 847.998 426.692C847.998 426.692 847.998 426.692 847.998 426.692C847.998 426.692 847.998 426.692 847.998 426.692C847.998 426.692 847.998 426.692 847.998 426.692C847.998 426.692 847.998 426.692 847.998 426.692C847.998 426.692 847.998 426.692 847.998 426.692C847.998 426.692 847.999 426.692 847.999 426.692C847.999 426.692 847.999 426.692 847.999 426.692C847.999 426.692 847.999 426.692 847.999 426.692C847.999 426.692 847.999 426.692 847.999 426.692C847.999 426.692 847.999 426.692 847.999 426.692C847.999 426.692 847.999 426.692 847.999 426.692C848 426.692 848 426.692 848 426.692C848 426.692 848 426.692 848 426.692C848 426.692 848 426.692 848 426.692C848 426.692 848 426.692 848 426.692C848 426.692 848 426.692 848 426.692C848 426.692 848.001 426.692 848.001 426.692C848.001 426.692 848.001 426.692 848.001 426.692C848.001 426.692 848.001 426.692 848.001 426.692C848.001 426.692 848.001 426.692 848.001 426.692C848.001 426.692 848.001 426.692 848.001 426.692C848.001 426.692 848.002 426.692 848.002 426.692C848.002 426.692 848.002 426.692 848.002 426.692C848.002 426.692 848.002 426.692 848.002 426.692C848.002 426.692 848.002 426.692 848.002 426.692C848.002 426.692 848.002 426.692 848.002 426.692C848.002 426.692 848.003 426.692 848.003 426.692C848.003 426.692 848.003 426.692 848.003 426.692C848.003 426.692 848.003 426.692 848.003 426.692C848.003 426.692 848.003 426.692 848.003 426.692C848.003 426.692 848.003 426.692 848.003 426.692C848.004 426.692 848.004 426.692 848.004 426.692C848.004 426.692 848.004 426.692 848.004 426.692C848.004 426.692 848.004 426.692 848.004 426.692C848.004 426.692 848.004 426.692 848.004 426.692C848.004 426.692 848.004 426.692 848.005 426.692C848.005 426.692 848.005 426.692 848.005 426.692C848.005 426.692 848.005 426.692 848.005 426.692C848.005 426.692 848.005 426.692 848.005 426.692C848.005 426.692 848.005 426.692 848.005 426.692C848.006 426.692 848.006 426.692 848.006 426.692C848.006 426.692 848.006 426.692 848.006 426.692C848.006 426.692 848.006 426.692 848.006 426.692C848.006 426.692 848.006 426.692 848.006 426.692C848.007 426.692 848.007 426.692 848.007 426.692C848.007 426.692 848.007 426.692 848.007 426.692C848.007 426.692 848.007 426.692 848.007 426.692C848.007 426.692 848.007 426.692 848.007 426.692C848.008 426.692 848.008 426.692 848.008 426.692C848.008 426.692 848.008 426.692 848.008 426.692C848.008 426.692 848.008 426.692 848.008 426.692C848.008 426.692 848.008 426.692 848.008 426.692C848.008 426.692 848.009 426.692 848.009 426.692C848.009 426.692 848.009 426.692 848.009 426.692C848.009 426.692 848.009 426.692 848.009 426.692C848.009 426.692 848.009 426.692 848.009 426.692C848.01 426.692 848.01 426.692 848.01 426.692C848.01 426.692 848.01 426.692 848.01 426.692C848.01 426.692 848.01 426.692 848.01 426.692C848.01 426.692 848.01 426.692 848.011 426.692C848.011 426.692 848.011 426.692 848.011 426.692C848.011 426.692 848.011 426.692 848.011 426.692C848.011 426.692 848.011 426.692 848.011 426.692C848.011 426.692 848.012 426.692 848.012 426.692C848.012 426.692 848.012 426.692 848.012 426.692C848.012 426.692 848.012 426.692 848.012 426.692C848.012 426.692 848.012 426.692 848.013 426.692C848.013 426.692 848.013 426.692 848.013 426.692C848.013 426.692 848.013 426.692 848.013 426.692C848.013 426.692 848.013 426.692 848.013 426.692C848.013 426.692 848.014 426.692 848.014 426.692C848.014 426.692 848.014 426.692 848.014 426.692C848.014 426.692 848.014 426.692 848.014 426.692C848.014 426.692 848.014 426.692 848.015 426.692C848.015 426.692 848.015 426.692 848.015 426.692C848.015 426.692 848.015 426.692 848.015 426.692C848.015 426.692 848.015 426.692 848.016 426.692C848.016 426.692 848.016 426.692 848.016 426.692C848.016 426.692 848.016 426.692 848.016 426.692C848.016 426.692 848.016 426.692 848.016 426.692C848.017 426.692 848.017 426.692 848.017 426.692C848.017 426.692 848.017 426.692 848.017 426.692C848.017 426.692 848.017 426.692 848.017 426.692C848.017 426.692 848.018 426.692 848.018 426.692C848.018 426.692 848.018 426.692 848.018 426.692C848.018 426.692 848.018 426.692 848.018 426.692C848.018 426.692 848.019 426.692 848.019 426.692C848.019 426.692 848.019 426.692 848.019 426.692C848.019 426.692 848.019 426.692 848.019 426.692C848.019 426.692 848.02 426.692 848.02 426.692C848.02 426.692 848.02 426.692 848.02 426.692C848.02 426.692 848.02 426.692 848.02 426.692C848.02 426.692 848.021 426.692 848.021 426.692C848.021 426.692 848.021 426.692 848.021 426.692C848.021 426.692 848.021 426.692 848.021 426.692C848.021 426.692 848.022 426.692 848.022 426.692C848.022 426.692 848.022 426.692 848.022 426.692C848.022 426.692 848.022 426.692 848.022 426.692C848.023 426.692 848.023 426.692 848.023 426.692C848.023 426.692 848.023 426.692 848.023 426.692C848.023 426.692 848.023 426.692 848.024 426.692C848.024 426.692 848.024 426.692 848.024 426.692C848.024 426.692 848.024 426.692 848.024 426.692C848.024 426.692 848.025 426.692 848.025 426.692C848.025 426.692 848.025 426.692 848.025 426.692C848.025 426.692 848.025 426.692 848.025 426.692C848.026 426.692 848.026 426.692 848.026 426.692C848.026 426.692 848.026 426.692 848.026 426.692C848.026 426.692 848.026 426.692 848.026 426.692C848.027 426.692 848.027 426.692 848.027 426.692C848.027 426.692 848.027 426.692 848.027 426.692C848.027 426.692 848.028 426.692 848.028 426.692C848.028 426.692 848.028 426.692 848.028 426.692C848.028 426.692 848.028 426.692 848.028 426.692C848.029 426.692 848.029 426.692 848.029 426.692C848.029 426.692 848.029 426.692 848.029 426.692C848.029 426.692 848.03 426.692 848.03 426.692C848.03 426.692 848.03 426.692 848.03 426.692C848.03 426.692 848.03 426.692 848.03 426.692C848.031 426.692 848.031 426.692 848.031 426.692C848.031 426.692 848.031 426.692 848.031 426.692C848.031 426.692 848.032 426.692 848.032 426.692C848.032 426.692 848.032 426.692 848.032 426.692C848.032 426.692 848.032 426.692 848.033 426.692C848.033 426.692 848.033 426.692 848.033 426.692C848.033 426.692 848.033 426.692 848.033 426.692C848.034 426.692 848.034 426.692 848.034 426.692C848.034 426.692 848.034 426.692 848.034 426.692C848.034 426.692 848.034 426.692 848.035 426.692C848.035 426.692 848.035 426.692 848.035 426.692C848.035 426.692 848.035 426.692 848.036 426.692C848.036 426.692 848.036 426.692 848.036 426.692C848.036 426.692 848.036 426.692 848.036 426.692C848.037 426.692 848.037 426.692 848.037 426.692C848.037 426.692 848.037 426.692 848.037 426.692C848.037 426.692 848.038 426.692 848.038 426.692C848.038 426.692 848.038 426.692 848.038 426.692C848.038 426.692 848.039 426.692 848.039 426.692C848.039 426.692 848.039 426.692 848.039 426.692C848.039 426.692 848.039 426.692 848.04 426.692C848.04 426.692 848.04 426.692 848.04 426.692C848.04 426.692 848.04 426.692 848.04 426.692C848.041 426.692 848.041 426.692 848.041 426.692C848.041 426.692 848.041 426.692 848.041 426.692C848.042 426.692 848.042 426.692 848.042 426.692C848.042 426.692 848.042 426.692 848.042 426.692C848.043 426.692 848.043 426.692 848.043 426.692C848.043 426.692 848.043 426.692 848.043 426.692C848.044 426.692 848.044 426.692 848.044 426.692C848.044 426.692 848.044 426.692 848.044 426.692C848.044 426.692 848.045 426.692 848.045 426.692C848.045 426.692 848.045 426.692 848.045 426.692C848.045 426.692 848.046 426.692 848.046 426.692C848.046 426.692 848.046 426.692 848.046 426.692C848.046 426.692 848.047 426.692 848.047 426.692C848.047 426.692 848.047 426.692 848.047 426.692C848.047 426.692 848.048 426.692 848.048 426.692C848.048 426.692 848.048 426.692 848.048 426.692C848.048 426.692 848.049 426.692 848.049 426.692C848.049 426.692 848.049 426.692 848.049 426.692C848.049 426.692 848.05 426.692 848.05 426.692C848.05 426.692 848.05 426.692 848.05 426.692C848.051 426.692 848.051 426.692 848.051 426.692C848.051 426.692 848.051 426.692 848.051 426.692C848.052 426.692 848.052 426.692 848.052 426.692C848.052 426.692 848.052 426.692 848.052 426.692C848.053 426.692 848.053 426.692 848.053 426.692C848.053 426.692 848.053 426.692 848.054 426.692C848.054 426.692 848.054 426.692 848.054 426.692C848.054 426.692 848.054 426.692 848.055 426.692C848.055 426.692 848.055 426.692 848.055 426.692C848.055 426.692 848.056 426.692 848.056 426.692C848.056 426.692 848.056 426.692 848.056 426.692C848.056 426.692 848.057 426.692 848.057 426.692C848.057 426.692 848.057 426.692 848.057 426.692C848.058 426.692 848.058 426.692 848.058 426.692C848.058 426.692 848.058 426.692 848.058 426.692C848.059 426.692 848.059 426.692 848.059 426.692C848.059 426.692 848.059 426.692 848.06 426.692C848.06 426.692 848.06 426.692 848.06 426.692C848.06 426.692 848.061 426.692 848.061 426.692C848.061 426.692 848.061 426.692 848.061 426.692C848.062 426.692 848.062 426.692 848.062 426.692C848.062 426.692 848.062 426.692 848.062 426.692C848.063 426.692 848.063 426.692 848.063 426.692C848.063 426.692 848.063 426.692 848.064 426.692C848.064 426.692 848.064 426.692 848.064 426.692C848.065 426.692 848.065 426.692 848.065 426.692C848.065 426.692 848.065 426.692 848.065 426.692C848.066 426.692 848.066 426.692 848.066 426.692C848.066 426.692 848.066 426.692 848.067 426.692C848.067 426.692 848.067 426.692 848.067 426.692C848.068 426.692 848.068 426.692 848.068 426.692C848.068 426.692 848.068 426.692 848.069 426.692C848.069 426.692 848.069 426.692 848.069 426.692C848.069 426.692 848.07 426.692 848.07 426.692C848.07 426.692 848.07 426.692 848.07 426.692C848.071 426.692 848.071 426.692 848.071 426.692C848.071 426.692 848.071 426.692 848.072 426.692C848.072 426.692 848.072 426.692 848.072 426.692C848.073 426.692 848.073 426.692 848.073 426.692C848.073 426.692 848.073 426.692 848.074 426.692C848.074 426.692 848.074 426.692 848.074 426.692C848.074 426.692 848.075 426.692 848.075 426.692C848.075 426.692 848.075 426.692 848.076 426.692C848.076 426.692 848.076 426.692 848.076 426.692C848.076 426.692 848.077 426.692 848.077 426.692C848.077 426.692 848.077 426.692 848.077 426.692C848.078 426.692 848.078 426.692 848.078 426.692C848.078 426.692 848.079 426.692 848.079 426.692C848.079 426.692 848.079 426.692 848.079 426.692C848.08 426.692 848.08 426.692 848.08 426.692C848.08 426.692 848.081 426.692 848.081 426.692C848.081 426.692 848.081 426.692 848.081 426.692C848.082 426.692 848.082 426.692 848.082 426.692C848.082 426.692 848.083 426.692 848.083 426.692C848.083 426.692 848.083 426.692 848.083 426.692C848.084 426.692 848.084 426.692 848.084 426.692C848.084 426.692 848.085 426.692 848.085 426.692C848.085 426.692 848.085 426.692 848.086 426.692C848.086 426.692 848.086 426.692 848.086 426.692C848.087 426.692 848.087 426.692 848.087 426.692C848.087 426.692 848.087 426.692 848.088 426.692C848.088 426.692 848.088 426.692 848.088 426.692C848.089 426.692 848.089 426.692 848.089 426.692C848.089 426.692 848.09 426.692 848.09 426.692C848.09 426.692 848.09 426.692 848.091 426.692C848.091 426.692 848.091 426.692 848.091 426.692C848.092 426.692 848.092 426.692 848.092 426.692C848.092 426.692 848.092 426.692 848.093 426.692C848.093 426.692 848.093 426.692 848.093 426.692C848.094 426.692 848.094 426.692 848.094 426.692C848.094 426.692 848.095 426.692 848.095 426.692C848.095 426.692 848.095 426.692 848.096 426.692C848.096 426.692 848.096 426.692 848.096 426.692C848.097 426.692 848.097 426.692 848.097 426.692C848.097 426.692 848.098 426.692 848.098 426.692C848.098 426.692 848.098 426.692 848.099 426.692C848.099 426.692 848.099 426.692 848.099 426.692C848.1 426.692 848.1 426.692 848.1 426.692C848.1 426.692 848.101 426.692 848.101 426.692C848.101 426.692 848.102 426.692 848.102 426.692C848.102 426.692 848.102 426.692 848.103 426.692C848.103 426.692 848.103 426.692 848.103 426.692C848.104 426.692 848.104 426.692 848.104 426.692C848.104 426.692 848.105 426.692 848.105 426.692C848.105 426.692 848.105 426.692 848.106 426.692C848.106 426.692 848.106 426.692 848.106 426.692C848.107 426.692 848.107 426.692 848.107 426.692C848.107 426.692 848.108 426.692 848.108 426.692C848.108 426.692 848.109 426.692 848.109 426.692C848.109 426.692 848.109 426.692 848.11 426.692C848.11 426.692 848.11 426.692 848.11 426.692C848.111 426.692 848.111 426.692 848.111 426.692C848.112 426.692 848.112 426.692 848.112 426.692C848.112 426.692 848.113 426.692 848.113 426.692C848.113 426.692 848.113 426.692 848.114 426.692C848.114 426.692 848.114 426.692 848.115 426.692C848.115 426.692 848.115 426.692 848.115 426.692C848.116 426.692 848.116 426.692 848.116 426.692C848.117 426.692 848.117 426.692 848.117 426.692C848.117 426.692 848.118 426.692 848.118 426.692C848.118 426.692 848.118 426.692 848.119 426.692C848.119 426.692 848.119 426.692 848.12 426.692C848.12 426.692 848.12 426.692 848.12 426.692C848.121 426.692 848.121 426.692 848.121 426.692C848.122 426.692 848.122 426.692 848.122 426.692C848.122 426.692 848.123 426.692 848.123 426.692C848.123 426.692 848.124 426.692 848.124 426.692C848.124 426.692 848.124 426.692 848.125 426.692C848.125 426.692 848.125 426.692 848.126 426.692C848.126 426.692 848.126 426.692 848.127 426.692C848.127 426.692 848.127 426.692 848.127 426.692C848.128 426.692 848.128 426.692 848.128 426.692C848.129 426.692 848.129 426.692 848.129 426.692C848.129 426.692 848.13 426.692 848.13 426.692C848.13 426.692 848.131 426.692 848.131 426.692C848.131 426.692 848.132 426.692 848.132 426.692C848.132 426.692 848.132 426.692 848.133 426.692C848.133 426.692 848.133 426.692 848.134 426.692C848.134 426.692 848.134 426.692 848.135 426.692C848.135 426.692 848.135 426.692 848.135 426.692C848.136 426.692 848.136 426.692 848.136 426.692C848.137 426.692 848.137 426.692 848.137 426.692C848.138 426.692 848.138 426.692 848.138 426.692C848.139 426.692 848.139 426.692 848.139 426.692C848.139 426.692 848.14 426.692 848.14 426.692C848.14 426.692 848.141 426.692 848.141 426.692C848.141 426.692 848.142 426.692 848.142 426.692C848.142 426.692 848.143 426.692 848.143 426.692C848.143 426.692 848.144 426.692 848.144 426.692C848.144 426.692 848.144 426.692 848.145 426.692C848.145 426.692 848.145 426.692 848.146 426.692C848.146 426.692 848.146 426.692 848.147 426.692C848.147 426.692 848.147 426.692 848.148 426.692C848.148 426.692 848.148 426.692 848.149 426.692C848.149 426.692 848.149 426.692 848.15 426.692C848.15 426.692 848.15 426.692 848.151 426.692C848.151 426.692 848.151 426.692 848.152 426.692C848.152 426.692 848.152 426.692 848.153 426.692C848.153 426.692 848.153 426.692 848.154 426.692C848.154 426.692 848.154 426.692 848.155 426.692C848.155 426.692 848.155 426.692 848.156 426.692C848.156 426.692 848.156 426.692 848.157 426.692C848.157 426.692 848.157 426.692 848.158 426.692V423.48C848.157 423.48 848.157 423.48 848.157 423.48C848.156 423.48 848.156 423.48 848.156 423.48C848.155 423.48 848.155 423.48 848.155 423.48C848.154 423.48 848.154 423.48 848.154 423.48C848.153 423.48 848.153 423.48 848.153 423.48C848.152 423.48 848.152 423.48 848.152 423.48C848.151 423.48 848.151 423.48 848.151 423.48C848.15 423.48 848.15 423.48 848.15 423.48C848.149 423.48 848.149 423.48 848.149 423.48C848.148 423.48 848.148 423.48 848.148 423.48C848.147 423.48 848.147 423.48 848.147 423.48C848.146 423.48 848.146 423.48 848.146 423.48C848.145 423.48 848.145 423.48 848.145 423.48C848.144 423.48 848.144 423.48 848.144 423.48C848.144 423.48 848.143 423.48 848.143 423.48C848.143 423.48 848.142 423.48 848.142 423.48C848.142 423.48 848.141 423.48 848.141 423.48C848.141 423.48 848.14 423.48 848.14 423.48C848.14 423.48 848.139 423.48 848.139 423.48C848.139 423.48 848.139 423.48 848.138 423.48C848.138 423.48 848.138 423.48 848.137 423.48C848.137 423.48 848.137 423.48 848.136 423.48C848.136 423.48 848.136 423.48 848.135 423.48C848.135 423.48 848.135 423.48 848.135 423.48C848.134 423.48 848.134 423.48 848.134 423.48C848.133 423.48 848.133 423.48 848.133 423.48C848.132 423.48 848.132 423.48 848.132 423.48C848.132 423.48 848.131 423.48 848.131 423.48C848.131 423.48 848.13 423.48 848.13 423.48C848.13 423.48 848.129 423.48 848.129 423.48C848.129 423.48 848.129 423.48 848.128 423.48C848.128 423.48 848.128 423.48 848.127 423.48C848.127 423.48 848.127 423.48 848.127 423.48C848.126 423.48 848.126 423.48 848.126 423.48C848.125 423.48 848.125 423.48 848.125 423.48C848.124 423.48 848.124 423.48 848.124 423.48C848.124 423.48 848.123 423.48 848.123 423.48C848.123 423.48 848.122 423.48 848.122 423.48C848.122 423.48 848.122 423.48 848.121 423.48C848.121 423.48 848.121 423.48 848.12 423.48C848.12 423.48 848.12 423.48 848.12 423.48C848.119 423.48 848.119 423.48 848.119 423.48C848.118 423.48 848.118 423.48 848.118 423.48C848.118 423.48 848.117 423.48 848.117 423.48C848.117 423.48 848.117 423.48 848.116 423.48C848.116 423.48 848.116 423.48 848.115 423.48C848.115 423.48 848.115 423.48 848.115 423.48C848.114 423.48 848.114 423.48 848.114 423.48C848.113 423.48 848.113 423.48 848.113 423.48C848.113 423.48 848.112 423.48 848.112 423.48C848.112 423.48 848.112 423.48 848.111 423.48C848.111 423.48 848.111 423.48 848.11 423.48C848.11 423.48 848.11 423.48 848.11 423.48C848.109 423.48 848.109 423.48 848.109 423.48C848.109 423.48 848.108 423.48 848.108 423.48C848.108 423.48 848.107 423.48 848.107 423.48C848.107 423.48 848.107 423.48 848.106 423.48C848.106 423.48 848.106 423.48 848.106 423.48C848.105 423.48 848.105 423.48 848.105 423.48C848.105 423.48 848.104 423.48 848.104 423.48C848.104 423.48 848.104 423.48 848.103 423.48C848.103 423.48 848.103 423.48 848.103 423.48C848.102 423.48 848.102 423.48 848.102 423.48C848.102 423.48 848.101 423.48 848.101 423.48C848.101 423.48 848.1 423.48 848.1 423.48C848.1 423.48 848.1 423.48 848.099 423.48C848.099 423.48 848.099 423.48 848.099 423.48C848.098 423.48 848.098 423.48 848.098 423.48C848.098 423.48 848.097 423.48 848.097 423.48C848.097 423.48 848.097 423.48 848.096 423.48C848.096 423.48 848.096 423.48 848.096 423.48C848.095 423.48 848.095 423.48 848.095 423.48C848.095 423.48 848.094 423.48 848.094 423.48C848.094 423.48 848.094 423.48 848.093 423.48C848.093 423.48 848.093 423.48 848.093 423.48C848.092 423.48 848.092 423.48 848.092 423.48C848.092 423.48 848.092 423.48 848.091 423.48C848.091 423.48 848.091 423.48 848.091 423.48C848.09 423.48 848.09 423.48 848.09 423.48C848.09 423.48 848.089 423.48 848.089 423.48C848.089 423.48 848.089 423.48 848.088 423.48C848.088 423.48 848.088 423.48 848.088 423.48C848.087 423.48 848.087 423.48 848.087 423.48C848.087 423.48 848.087 423.48 848.086 423.48C848.086 423.48 848.086 423.48 848.086 423.48C848.085 423.48 848.085 423.48 848.085 423.48C848.085 423.48 848.084 423.48 848.084 423.48C848.084 423.48 848.084 423.48 848.083 423.48C848.083 423.48 848.083 423.48 848.083 423.48C848.083 423.48 848.082 423.48 848.082 423.48C848.082 423.48 848.082 423.48 848.081 423.48C848.081 423.48 848.081 423.48 848.081 423.48C848.081 423.48 848.08 423.48 848.08 423.48C848.08 423.48 848.08 423.48 848.079 423.48C848.079 423.48 848.079 423.48 848.079 423.48C848.079 423.48 848.078 423.48 848.078 423.48C848.078 423.48 848.078 423.48 848.077 423.48C848.077 423.48 848.077 423.48 848.077 423.48C848.077 423.48 848.076 423.48 848.076 423.48C848.076 423.48 848.076 423.48 848.076 423.48C848.075 423.48 848.075 423.48 848.075 423.48C848.075 423.48 848.074 423.48 848.074 423.48C848.074 423.48 848.074 423.48 848.074 423.48C848.073 423.48 848.073 423.48 848.073 423.48C848.073 423.48 848.073 423.48 848.072 423.48C848.072 423.48 848.072 423.48 848.072 423.48C848.071 423.48 848.071 423.48 848.071 423.48C848.071 423.48 848.071 423.48 848.07 423.48C848.07 423.48 848.07 423.48 848.07 423.48C848.07 423.48 848.069 423.48 848.069 423.48C848.069 423.48 848.069 423.48 848.069 423.48C848.068 423.48 848.068 423.48 848.068 423.48C848.068 423.48 848.068 423.48 848.067 423.48C848.067 423.48 848.067 423.48 848.067 423.48C848.066 423.48 848.066 423.48 848.066 423.48C848.066 423.48 848.066 423.48 848.065 423.48C848.065 423.48 848.065 423.48 848.065 423.48C848.065 423.48 848.065 423.48 848.064 423.48C848.064 423.48 848.064 423.48 848.064 423.48C848.063 423.48 848.063 423.48 848.063 423.48C848.063 423.48 848.063 423.48 848.062 423.48C848.062 423.48 848.062 423.48 848.062 423.48C848.062 423.48 848.062 423.48 848.061 423.48C848.061 423.48 848.061 423.48 848.061 423.48C848.061 423.48 848.06 423.48 848.06 423.48C848.06 423.48 848.06 423.48 848.06 423.48C848.059 423.48 848.059 423.48 848.059 423.48C848.059 423.48 848.059 423.48 848.058 423.48C848.058 423.48 848.058 423.48 848.058 423.48C848.058 423.48 848.058 423.48 848.057 423.48C848.057 423.48 848.057 423.48 848.057 423.48C848.057 423.48 848.056 423.48 848.056 423.48C848.056 423.48 848.056 423.48 848.056 423.48C848.056 423.48 848.055 423.48 848.055 423.48C848.055 423.48 848.055 423.48 848.055 423.48C848.054 423.48 848.054 423.48 848.054 423.48C848.054 423.48 848.054 423.48 848.054 423.48C848.053 423.48 848.053 423.48 848.053 423.48C848.053 423.48 848.053 423.48 848.052 423.48C848.052 423.48 848.052 423.48 848.052 423.48C848.052 423.48 848.052 423.48 848.051 423.48C848.051 423.48 848.051 423.48 848.051 423.48C848.051 423.48 848.051 423.48 848.05 423.48C848.05 423.48 848.05 423.48 848.05 423.48C848.05 423.48 848.049 423.48 848.049 423.48C848.049 423.48 848.049 423.48 848.049 423.48C848.049 423.48 848.048 423.48 848.048 423.48C848.048 423.48 848.048 423.48 848.048 423.48C848.048 423.48 848.047 423.48 848.047 423.48C848.047 423.48 848.047 423.48 848.047 423.48C848.047 423.48 848.046 423.48 848.046 423.48C848.046 423.48 848.046 423.48 848.046 423.48C848.046 423.48 848.045 423.48 848.045 423.48C848.045 423.48 848.045 423.48 848.045 423.48C848.045 423.48 848.044 423.48 848.044 423.48C848.044 423.48 848.044 423.48 848.044 423.48C848.044 423.48 848.044 423.48 848.043 423.48C848.043 423.48 848.043 423.48 848.043 423.48C848.043 423.48 848.043 423.48 848.042 423.48C848.042 423.48 848.042 423.48 848.042 423.48C848.042 423.48 848.042 423.48 848.041 423.48C848.041 423.48 848.041 423.48 848.041 423.48C848.041 423.48 848.041 423.48 848.04 423.48C848.04 423.48 848.04 423.48 848.04 423.48C848.04 423.48 848.04 423.48 848.04 423.48C848.039 423.48 848.039 423.48 848.039 423.48C848.039 423.48 848.039 423.48 848.039 423.48C848.039 423.48 848.038 423.48 848.038 423.48C848.038 423.48 848.038 423.48 848.038 423.48C848.038 423.48 848.037 423.48 848.037 423.48C848.037 423.48 848.037 423.48 848.037 423.48C848.037 423.48 848.037 423.48 848.036 423.48C848.036 423.48 848.036 423.48 848.036 423.48C848.036 423.48 848.036 423.48 848.036 423.48C848.035 423.48 848.035 423.48 848.035 423.48C848.035 423.48 848.035 423.48 848.035 423.48C848.034 423.48 848.034 423.48 848.034 423.48C848.034 423.48 848.034 423.48 848.034 423.48C848.034 423.48 848.034 423.48 848.033 423.48C848.033 423.48 848.033 423.48 848.033 423.48C848.033 423.48 848.033 423.48 848.033 423.48C848.032 423.48 848.032 423.48 848.032 423.48C848.032 423.48 848.032 423.48 848.032 423.48C848.032 423.48 848.031 423.48 848.031 423.48C848.031 423.48 848.031 423.48 848.031 423.48C848.031 423.48 848.031 423.48 848.03 423.48C848.03 423.48 848.03 423.48 848.03 423.48C848.03 423.48 848.03 423.48 848.03 423.48C848.03 423.48 848.029 423.48 848.029 423.48C848.029 423.48 848.029 423.48 848.029 423.48C848.029 423.48 848.029 423.48 848.028 423.48C848.028 423.48 848.028 423.48 848.028 423.48C848.028 423.48 848.028 423.48 848.028 423.48C848.028 423.48 848.027 423.48 848.027 423.48C848.027 423.48 848.027 423.48 848.027 423.48C848.027 423.48 848.027 423.48 848.026 423.48C848.026 423.48 848.026 423.48 848.026 423.48C848.026 423.48 848.026 423.48 848.026 423.48C848.026 423.48 848.026 423.48 848.025 423.48C848.025 423.48 848.025 423.48 848.025 423.48C848.025 423.48 848.025 423.48 848.025 423.48C848.025 423.48 848.024 423.48 848.024 423.48C848.024 423.48 848.024 423.48 848.024 423.48C848.024 423.48 848.024 423.48 848.024 423.48C848.023 423.48 848.023 423.48 848.023 423.48C848.023 423.48 848.023 423.48 848.023 423.48C848.023 423.48 848.023 423.48 848.022 423.48C848.022 423.48 848.022 423.48 848.022 423.48C848.022 423.48 848.022 423.48 848.022 423.48C848.022 423.48 848.021 423.48 848.021 423.48C848.021 423.48 848.021 423.48 848.021 423.48C848.021 423.48 848.021 423.48 848.021 423.48C848.021 423.48 848.02 423.48 848.02 423.48C848.02 423.48 848.02 423.48 848.02 423.48C848.02 423.48 848.02 423.48 848.02 423.48C848.02 423.48 848.019 423.48 848.019 423.48C848.019 423.48 848.019 423.48 848.019 423.48C848.019 423.48 848.019 423.48 848.019 423.48C848.019 423.48 848.018 423.48 848.018 423.48C848.018 423.48 848.018 423.48 848.018 423.48C848.018 423.48 848.018 423.48 848.018 423.48C848.018 423.48 848.017 423.48 848.017 423.48C848.017 423.48 848.017 423.48 848.017 423.48C848.017 423.48 848.017 423.48 848.017 423.48C848.017 423.48 848.017 423.48 848.016 423.48C848.016 423.48 848.016 423.48 848.016 423.48C848.016 423.48 848.016 423.48 848.016 423.48C848.016 423.48 848.016 423.48 848.016 423.48C848.015 423.48 848.015 423.48 848.015 423.48C848.015 423.48 848.015 423.48 848.015 423.48C848.015 423.48 848.015 423.48 848.015 423.48C848.014 423.48 848.014 423.48 848.014 423.48C848.014 423.48 848.014 423.48 848.014 423.48C848.014 423.48 848.014 423.48 848.014 423.48C848.014 423.48 848.013 423.48 848.013 423.48C848.013 423.48 848.013 423.48 848.013 423.48C848.013 423.48 848.013 423.48 848.013 423.48C848.013 423.48 848.013 423.48 848.013 423.48C848.012 423.48 848.012 423.48 848.012 423.48C848.012 423.48 848.012 423.48 848.012 423.48C848.012 423.48 848.012 423.48 848.012 423.48C848.012 423.48 848.011 423.48 848.011 423.48C848.011 423.48 848.011 423.48 848.011 423.48C848.011 423.48 848.011 423.48 848.011 423.48C848.011 423.48 848.011 423.48 848.011 423.48C848.01 423.48 848.01 423.48 848.01 423.48C848.01 423.48 848.01 423.48 848.01 423.48C848.01 423.48 848.01 423.48 848.01 423.48C848.01 423.48 848.01 423.48 848.009 423.48C848.009 423.48 848.009 423.48 848.009 423.48C848.009 423.48 848.009 423.48 848.009 423.48C848.009 423.48 848.009 423.48 848.009 423.48C848.009 423.48 848.008 423.48 848.008 423.48C848.008 423.48 848.008 423.48 848.008 423.48C848.008 423.48 848.008 423.48 848.008 423.48C848.008 423.48 848.008 423.48 848.008 423.48C848.008 423.48 848.008 423.48 848.007 423.48C848.007 423.48 848.007 423.48 848.007 423.48C848.007 423.48 848.007 423.48 848.007 423.48C848.007 423.48 848.007 423.48 848.007 423.48C848.007 423.48 848.007 423.48 848.006 423.48C848.006 423.48 848.006 423.48 848.006 423.48C848.006 423.48 848.006 423.48 848.006 423.48C848.006 423.48 848.006 423.48 848.006 423.48C848.006 423.48 848.006 423.48 848.005 423.48C848.005 423.48 848.005 423.48 848.005 423.48C848.005 423.48 848.005 423.48 848.005 423.48C848.005 423.48 848.005 423.48 848.005 423.48C848.005 423.48 848.005 423.48 848.005 423.48C848.004 423.48 848.004 423.48 848.004 423.48C848.004 423.48 848.004 423.48 848.004 423.48C848.004 423.48 848.004 423.48 848.004 423.48C848.004 423.48 848.004 423.48 848.004 423.48C848.004 423.48 848.004 423.48 848.003 423.48C848.003 423.48 848.003 423.48 848.003 423.48C848.003 423.48 848.003 423.48 848.003 423.48C848.003 423.48 848.003 423.48 848.003 423.48C848.003 423.48 848.003 423.48 848.003 423.48C848.003 423.48 848.002 423.48 848.002 423.48C848.002 423.48 848.002 423.48 848.002 423.48C848.002 423.48 848.002 423.48 848.002 423.48C848.002 423.48 848.002 423.48 848.002 423.48C848.002 423.48 848.002 423.48 848.002 423.48C848.002 423.48 848.001 423.48 848.001 423.48C848.001 423.48 848.001 423.48 848.001 423.48C848.001 423.48 848.001 423.48 848.001 423.48C848.001 423.48 848.001 423.48 848.001 423.48C848.001 423.48 848.001 423.48 848.001 423.48C848.001 423.48 848 423.48 848 423.48C848 423.48 848 423.48 848 423.48C848 423.48 848 423.48 848 423.48C848 423.48 848 423.48 848 423.48C848 423.48 848 423.48 848 423.48C848 423.48 848 423.48 847.999 423.48C847.999 423.48 847.999 423.48 847.999 423.48C847.999 423.48 847.999 423.48 847.999 423.48C847.999 423.48 847.999 423.48 847.999 423.48C847.999 423.48 847.999 423.48 847.999 423.48C847.999 423.48 847.999 423.48 847.999 423.48C847.999 423.48 847.998 423.48 847.998 423.48C847.998 423.48 847.998 423.48 847.998 423.48C847.998 423.48 847.998 423.48 847.998 423.48C847.998 423.48 847.998 423.48 847.998 423.48C847.998 423.48 847.998 423.48 847.998 423.48C847.998 423.48 847.998 423.48 847.998 423.48C847.997 423.48 847.997 423.48 847.997 423.48C847.997 423.48 847.997 423.48 847.997 423.48C847.997 423.48 847.997 423.48 847.997 423.48C847.997 423.48 847.997 423.48 847.997 423.48C847.997 423.48 847.997 423.48 847.997 423.48C847.997 423.48 847.997 423.48 847.997 423.48C847.997 423.48 847.997 423.48 847.996 423.48C847.996 423.48 847.996 423.48 847.996 423.48C847.996 423.48 847.996 423.48 847.996 423.48C847.996 423.48 847.996 423.48 847.996 423.48C847.996 423.48 847.996 423.48 847.996 423.48C847.996 423.48 847.996 423.48 847.996 423.48C847.996 423.48 847.996 423.48 847.996 423.48C847.996 423.48 847.995 423.48 847.995 423.48C847.995 423.48 847.995 423.48 847.995 423.48C847.995 423.48 847.995 423.48 847.995 423.48C847.995 423.48 847.995 423.48 847.995 423.48C847.995 423.48 847.995 423.48 847.995 423.48C847.995 423.48 847.995 423.48 847.995 423.48C847.995 423.48 847.995 423.48 847.995 423.48C847.995 423.48 847.995 423.48 847.994 423.48C847.994 423.48 847.994 423.48 847.994 423.48C847.994 423.48 847.994 423.48 847.994 423.48C847.994 423.48 847.994 423.48 847.994 423.48C847.994 423.48 847.994 423.48 847.994 423.48C847.994 423.48 847.994 423.48 847.994 423.48C847.994 423.48 847.994 423.48 847.994 423.48C847.994 423.48 847.994 423.48 847.994 423.48C847.994 423.48 847.993 423.48 847.993 423.48C847.993 423.48 847.993 423.48 847.993 423.48C847.993 423.48 847.993 423.48 847.993 423.48C847.993 423.48 847.993 423.48 847.993 423.48C847.993 423.48 847.993 423.48 847.993 423.48C847.993 423.48 847.993 423.48 847.993 423.48C847.993 423.48 847.993 423.48 847.993 423.48C847.993 423.48 847.993 423.48 847.993 423.48H847.993C847.992 423.48 847.992 423.48 847.992 423.48C847.992 423.48 847.992 423.48 847.992 423.48C847.992 423.48 847.992 423.48 847.992 423.48C847.992 423.48 847.992 423.48 847.992 423.48H847.992C847.992 423.48 847.992 423.48 847.992 423.48C847.992 423.48 847.992 423.48 847.992 423.48H847.992C847.992 423.48 847.992 423.48 847.992 423.48C847.992 423.48 847.992 423.48 847.991 423.48H847.991C847.991 423.48 847.991 423.48 847.991 423.48H847.991C847.991 423.48 847.991 423.48 847.991 423.48H847.991C847.991 423.48 847.991 423.48 847.991 423.48H847.991C847.991 423.48 847.991 423.48 847.991 423.48H847.991C847.991 423.48 847.991 423.48 847.991 423.48H847.99H847.99C847.99 423.48 847.99 423.48 847.99 423.48H847.99C847.99 423.48 847.99 423.48 847.99 423.48C847.99 423.48 847.99 423.48 847.99 423.48H847.99H847.99C847.99 423.48 847.99 423.48 847.99 423.48C847.99 423.48 847.99 423.48 847.99 423.48H847.99H847.99C847.99 423.48 847.99 423.48 847.99 423.48C847.99 423.48 847.99 423.48 847.989 423.48C847.989 423.48 847.989 423.48 847.989 423.48C847.989 423.48 847.989 423.48 847.989 423.48H847.989H847.989H847.989H847.989C847.989 423.48 847.989 423.48 847.989 423.48C847.989 423.48 847.989 423.48 847.989 423.48C847.989 423.48 847.989 423.48 847.989 423.48C847.989 423.48 847.989 423.48 847.989 423.48C847.989 423.48 847.989 423.48 847.989 423.48C847.989 423.48 847.989 423.48 847.989 423.48C847.989 423.48 847.989 423.48 847.989 423.48C847.989 423.48 847.989 423.48 847.989 423.48H847.989H847.988H847.988C847.988 423.48 847.988 423.48 847.988 423.48C847.988 423.48 847.988 423.48 847.988 423.48C847.988 423.48 847.988 423.48 847.988 423.48C847.988 423.48 847.988 423.48 847.988 423.48H847.988C847.988 423.48 847.988 423.48 847.988 423.48C847.988 423.48 847.988 423.48 847.988 423.48C847.988 423.48 847.988 423.48 847.988 423.48C847.988 423.48 847.988 423.48 847.988 423.48C847.988 423.48 847.988 423.48 847.988 423.48H847.988C847.988 423.48 847.988 423.48 847.988 423.48H847.988C847.988 423.48 847.988 423.48 847.988 423.48H847.987C847.987 423.48 847.987 423.48 847.987 423.48C847.987 423.48 847.987 423.48 847.987 423.48H847.987H847.987H847.987H847.987H847.987H847.987C847.987 423.48 847.987 423.48 847.987 423.48H847.987C847.987 423.48 847.987 423.48 847.987 423.48C847.987 423.48 847.987 423.48 847.987 423.48C847.987 423.48 847.987 423.48 847.987 423.48C847.987 423.48 847.987 423.48 847.987 423.48C847.987 423.48 847.987 423.48 847.987 423.48C847.987 423.48 847.987 423.48 847.987 423.48C847.987 423.48 847.987 423.48 847.986 423.48H847.986C847.986 423.48 847.986 423.48 847.986 423.48C847.986 423.48 847.986 423.48 847.986 423.48C847.986 425.086 847.986 426.692 847.986 425.086ZM849.763 425.081C849.678 397.075 849.678 369.025 849.678 340.951C849.678 312.878 849.678 284.781 849.592 256.683L846.38 256.693C846.466 284.785 846.466 312.878 846.466 340.951C846.466 369.024 846.466 397.079 846.552 425.091L849.763 425.081Z" fill="black" mask="url(#path-1-inside-1_1037_834)"/>
<path d="M1997.82 256.688C1997.82 243.155 1997.31 229.45 1995.6 215.916C1986.86 147.221 1955.51 91.031 1899.83 49.4025C1855.46 16.1683 1804.76 0.5791 1749.25 0.407789C1659.66 0.236479 1569.89 0.236479 1480.29 0.407789C1445.35 0.407789 1410.23 -1.13401 1375.62 1.77827C1290.83 9.31593 1225.38 49.7452 1182.04 123.751C1159.26 162.639 1149.84 205.295 1149.84 250.178C1149.84 366.155 1149.84 481.961 1150.01 597.938C1150.01 611.129 1150.86 624.32 1152.41 637.511C1164.57 744.066 1250.05 832.12 1356.27 847.195C1373.23 849.593 1390.36 850.621 1407.49 850.621C1521.07 850.964 1634.82 850.964 1748.4 850.621C1825.14 850.45 1889.38 822.012 1939.58 763.938C1979.66 717.513 1997.65 662.18 1997.82 601.193C1997.99 542.434 1997.82 483.846 1997.82 425.086C1997.82 425.086 1997.82 425.086 1997.99 425.086C1997.82 369.068 1997.99 312.878 1997.82 256.688Z" fill="black"/>
<path d="M1997.82 256.688C1997.82 243.155 1997.31 229.45 1995.6 215.916C1986.86 147.221 1955.51 91.031 1899.83 49.4025C1855.46 16.1683 1804.76 0.5791 1749.25 0.407789C1659.66 0.236479 1569.89 0.236479 1480.29 0.407789C1445.35 0.407789 1410.23 -1.13401 1375.62 1.77827C1290.83 9.31593 1225.38 49.7452 1182.04 123.751C1159.26 162.639 1149.84 205.295 1149.84 250.178C1149.84 366.155 1149.84 481.961 1150.01 597.938C1150.01 611.129 1150.86 624.32 1152.41 637.511C1164.57 744.066 1250.05 832.12 1356.27 847.195C1373.23 849.593 1390.36 850.621 1407.49 850.621C1521.07 850.964 1634.82 850.964 1748.4 850.621C1825.14 850.45 1889.38 822.012 1939.58 763.938C1979.66 717.513 1997.65 662.18 1997.82 601.193C1997.99 542.434 1997.82 483.846 1997.82 425.086C1997.82 425.086 1997.82 425.086 1997.99 425.086C1997.82 369.068 1997.99 312.878 1997.82 256.688Z" fill="url(#paint1_linear_1037_834)" fill-opacity="0.2"/>
<defs>
<radialGradient id="paint0_radial_1037_834" cx="0" cy="0" r="1" gradientUnits="userSpaceOnUse" gradientTransform="translate(424.079 425.439) rotate(90) scale(425.439 424.079)">
<stop stop-opacity="0"/>
<stop offset="1"/>
</radialGradient>
<linearGradient id="paint1_linear_1037_834" x1="1573.92" y1="0" x2="1573.92" y2="850.878" gradientUnits="userSpaceOnUse">
<stop offset="0.15" stop-color="#FFFBFB" stop-opacity="0"/>
<stop offset="0.455" stop-color="#A4A1A1" stop-opacity="0.358824"/>
<stop offset="1"/>
</linearGradient>
</defs>
</svg>
