<svg width="521" height="523" viewBox="0 0 521 523" fill="none" xmlns="http://www.w3.org/2000/svg">
<g filter="url(#filter0_d_1212_4)">
<mask id="path-1-inside-1_1212_4" fill="white">
<path d="M515.975 155.571C515.975 147.401 515.665 139.128 514.631 130.958C509.357 89.4894 490.432 55.5698 456.823 30.4403C430.039 10.3781 399.429 0.9675 365.923 0.864087C311.837 0.760673 257.649 0.760673 203.563 0.864087C182.467 0.864087 161.267 -0.0666354 140.378 1.69139C89.1881 6.24159 49.6842 30.6472 23.5206 75.3218C9.7666 98.7966 4.07886 124.547 4.07886 151.641C4.07886 221.652 4.07886 291.559 4.18228 361.57C4.18228 369.533 4.69934 377.496 5.63006 385.459C12.9724 449.782 64.5757 502.936 128.692 512.037C138.93 513.485 149.271 514.105 159.613 514.105C228.176 514.312 296.842 514.312 365.405 514.105C411.735 514.002 450.515 496.835 480.815 461.778C505.014 433.753 515.872 400.35 515.975 363.535C516.079 328.064 515.975 292.697 515.975 257.226C515.975 257.226 515.975 257.226 516.079 257.226C515.975 223.41 516.079 189.49 515.975 155.571Z"/>
</mask>
<path d="M515.975 155.571C515.975 147.401 515.665 139.128 514.631 130.958C509.357 89.4894 490.432 55.5698 456.823 30.4403C430.039 10.3781 399.429 0.9675 365.923 0.864087C311.837 0.760673 257.649 0.760673 203.563 0.864087C182.467 0.864087 161.267 -0.0666354 140.378 1.69139C89.1881 6.24159 49.6842 30.6472 23.5206 75.3218C9.7666 98.7966 4.07886 124.547 4.07886 151.641C4.07886 221.652 4.07886 291.559 4.18228 361.57C4.18228 369.533 4.69934 377.496 5.63006 385.459C12.9724 449.782 64.5757 502.936 128.692 512.037C138.93 513.485 149.271 514.105 159.613 514.105C228.176 514.312 296.842 514.312 365.405 514.105C411.735 514.002 450.515 496.835 480.815 461.778C505.014 433.753 515.872 400.35 515.975 363.535C516.079 328.064 515.975 292.697 515.975 257.226C515.975 257.226 515.975 257.226 516.079 257.226C515.975 223.41 516.079 189.49 515.975 155.571Z" fill="#E20000"/>
<path d="M515.975 155.571C515.975 147.401 515.665 139.128 514.631 130.958C509.357 89.4894 490.432 55.5698 456.823 30.4403C430.039 10.3781 399.429 0.9675 365.923 0.864087C311.837 0.760673 257.649 0.760673 203.563 0.864087C182.467 0.864087 161.267 -0.0666354 140.378 1.69139C89.1881 6.24159 49.6842 30.6472 23.5206 75.3218C9.7666 98.7966 4.07886 124.547 4.07886 151.641C4.07886 221.652 4.07886 291.559 4.18228 361.57C4.18228 369.533 4.69934 377.496 5.63006 385.459C12.9724 449.782 64.5757 502.936 128.692 512.037C138.93 513.485 149.271 514.105 159.613 514.105C228.176 514.312 296.842 514.312 365.405 514.105C411.735 514.002 450.515 496.835 480.815 461.778C505.014 433.753 515.872 400.35 515.975 363.535C516.079 328.064 515.975 292.697 515.975 257.226C515.975 257.226 515.975 257.226 516.079 257.226C515.975 223.41 516.079 189.49 515.975 155.571Z" fill="url(#paint0_radial_1212_4)" fill-opacity="0.2"/>
<path d="M515.975 155.571L515.006 155.571L515.006 155.574L515.975 155.571ZM514.631 130.958L515.593 130.836L515.593 130.836L514.631 130.958ZM456.823 30.4403L456.242 31.2162L456.242 31.2167L456.823 30.4403ZM365.923 0.864087L365.926 -0.10534L365.924 -0.105342L365.923 0.864087ZM203.563 0.864087L203.563 1.83352L203.565 1.83352L203.563 0.864087ZM140.378 1.69139L140.296 0.725367L140.292 0.725771L140.378 1.69139ZM23.5206 75.3218L24.357 75.8119L24.3571 75.8117L23.5206 75.3218ZM4.18228 361.57L5.15171 361.57L5.15171 361.569L4.18228 361.57ZM5.63006 385.459L6.59324 385.349L6.59293 385.346L5.63006 385.459ZM128.692 512.037L128.556 512.997L128.556 512.997L128.692 512.037ZM159.613 514.105L159.616 513.136H159.613V514.105ZM365.405 514.105L365.403 513.136L365.403 513.136L365.405 514.105ZM480.815 461.778L481.548 462.412L481.549 462.411L480.815 461.778ZM515.975 363.535L515.006 363.532L515.006 363.532L515.975 363.535ZM515.975 257.226H516.945V256.257H515.975V257.226ZM516.079 257.226V258.196H517.051L517.048 257.223L516.079 257.226ZM516.945 155.571C516.945 147.378 516.634 139.061 515.593 130.836L513.669 131.08C514.696 139.195 515.006 147.424 515.006 155.571H516.945ZM515.593 130.836C510.287 89.1191 491.233 54.9582 457.403 29.6639L456.242 31.2167C489.631 56.1814 508.427 89.8598 513.669 131.081L515.593 130.836ZM457.404 29.6644C430.44 9.46719 399.623 -0.00133568 365.926 -0.105339L365.92 1.83351C399.234 1.93634 429.638 11.2891 456.242 31.2162L457.404 29.6644ZM365.924 -0.105342C311.838 -0.208758 257.648 -0.208758 203.562 -0.105342L203.565 1.83352C257.649 1.7301 311.837 1.7301 365.921 1.83352L365.924 -0.105342ZM203.563 -0.105344C182.525 -0.105344 161.24 -1.0372 140.296 0.725378L140.459 2.65741C161.295 0.903931 182.41 1.83352 203.563 1.83352V-0.105344ZM140.292 0.725771C88.7968 5.30312 49.0097 29.8806 22.6841 74.8319L24.3571 75.8117C50.3587 31.4138 89.5794 7.18006 140.464 2.65702L140.292 0.725771ZM22.6842 74.8317C8.8278 98.4813 3.10943 124.407 3.10943 151.641H5.04829C5.04829 124.686 10.7054 99.112 24.357 75.8119L22.6842 74.8317ZM3.10943 151.641C3.10943 221.652 3.10943 291.56 3.21285 361.572L5.15171 361.569C5.04829 291.559 5.04829 221.652 5.04829 151.641H3.10943ZM3.21285 361.57C3.21285 369.575 3.73263 377.576 4.66718 385.571L6.59293 385.346C5.66605 377.416 5.15171 369.491 5.15171 361.57H3.21285ZM4.66688 385.569C12.0592 450.329 64.0015 503.834 128.556 512.997L128.828 511.077C65.1499 502.039 13.8857 449.235 6.59323 385.349L4.66688 385.569ZM128.556 512.997C138.846 514.452 149.233 515.075 159.613 515.075V513.136C149.31 513.136 139.014 512.518 128.828 511.077L128.556 512.997ZM159.61 515.075C228.175 515.281 296.843 515.281 365.408 515.075L365.403 513.136C296.841 513.343 228.177 513.343 159.616 513.136L159.61 515.075ZM365.408 515.075C412.008 514.971 451.058 497.689 481.548 462.412L480.081 461.144C449.971 495.982 411.461 513.033 365.403 513.136L365.408 515.075ZM481.549 462.411C505.917 434.19 516.841 400.555 516.945 363.538L515.006 363.532C514.903 400.146 504.11 433.316 480.081 461.144L481.549 462.411ZM516.945 363.538C517.048 328.065 516.945 292.693 516.945 257.226H515.006C515.006 292.701 515.109 328.063 515.006 363.532L516.945 363.538ZM515.975 257.226C515.975 256.257 515.975 257.226 515.975 258.196C515.975 258.196 515.975 258.196 515.975 258.196C515.975 258.196 515.975 258.196 515.975 258.196C515.975 258.196 515.975 258.196 515.975 258.196C515.975 258.196 515.975 258.196 515.975 258.196C515.975 258.196 515.975 258.196 515.975 258.196C515.975 258.196 515.975 258.196 515.975 258.196C515.975 258.196 515.975 258.196 515.975 258.196C515.975 258.196 515.975 258.196 515.975 258.196C515.975 258.196 515.975 258.196 515.975 258.196C515.975 258.196 515.975 258.196 515.975 258.196C515.975 258.196 515.975 258.196 515.975 258.196C515.975 258.196 515.975 258.196 515.975 258.196C515.975 258.196 515.975 258.196 515.975 258.196C515.975 258.196 515.975 258.196 515.975 258.196C515.975 258.196 515.975 258.196 515.975 258.196C515.975 258.196 515.975 258.196 515.975 258.196C515.975 258.196 515.975 258.196 515.975 258.196C515.975 258.196 515.975 258.196 515.975 258.196C515.975 258.196 515.975 258.196 515.975 258.196C515.975 258.196 515.975 258.196 515.975 258.196C515.975 258.196 515.975 258.196 515.975 258.196C515.975 258.196 515.975 258.196 515.975 258.196C515.975 258.196 515.975 258.196 515.975 258.196C515.975 258.196 515.975 258.196 515.975 258.196C515.975 258.196 515.975 258.196 515.975 258.196C515.975 258.196 515.975 258.196 515.975 258.196C515.975 258.196 515.975 258.196 515.975 258.196C515.975 258.196 515.975 258.196 515.975 258.196C515.975 258.196 515.975 258.196 515.975 258.196C515.975 258.196 515.975 258.196 515.975 258.196C515.975 258.196 515.975 258.196 515.975 258.196C515.975 258.196 515.975 258.196 515.975 258.196C515.975 258.196 515.975 258.196 515.975 258.196C515.975 258.196 515.975 258.196 515.975 258.196C515.975 258.196 515.975 258.196 515.975 258.196C515.975 258.196 515.975 258.196 515.975 258.196C515.975 258.196 515.975 258.196 515.975 258.196C515.975 258.196 515.975 258.196 515.975 258.196C515.975 258.196 515.975 258.196 515.975 258.196C515.975 258.196 515.976 258.196 515.976 258.196C515.976 258.196 515.976 258.196 515.976 258.196C515.976 258.196 515.976 258.196 515.976 258.196C515.976 258.196 515.976 258.196 515.976 258.196C515.976 258.196 515.976 258.196 515.976 258.196C515.976 258.196 515.976 258.196 515.976 258.196C515.976 258.196 515.976 258.196 515.976 258.196C515.976 258.196 515.976 258.196 515.976 258.196C515.976 258.196 515.976 258.196 515.976 258.196C515.976 258.196 515.976 258.196 515.976 258.196C515.976 258.196 515.976 258.196 515.976 258.196C515.976 258.196 515.976 258.196 515.976 258.196C515.976 258.196 515.976 258.196 515.976 258.196C515.976 258.196 515.976 258.196 515.976 258.196C515.976 258.196 515.976 258.196 515.976 258.196C515.976 258.196 515.976 258.196 515.976 258.196C515.976 258.196 515.976 258.196 515.976 258.196C515.976 258.196 515.976 258.196 515.976 258.196C515.976 258.196 515.976 258.196 515.976 258.196C515.976 258.196 515.976 258.196 515.976 258.196C515.976 258.196 515.976 258.196 515.976 258.196C515.976 258.196 515.976 258.196 515.976 258.196C515.976 258.196 515.976 258.196 515.976 258.196C515.976 258.196 515.976 258.196 515.976 258.196C515.976 258.196 515.976 258.196 515.976 258.196C515.976 258.196 515.976 258.196 515.976 258.196C515.976 258.196 515.976 258.196 515.976 258.196C515.976 258.196 515.976 258.196 515.976 258.196C515.976 258.196 515.976 258.196 515.976 258.196C515.976 258.196 515.976 258.196 515.976 258.196C515.976 258.196 515.976 258.196 515.976 258.196C515.976 258.196 515.976 258.196 515.976 258.196C515.976 258.196 515.976 258.196 515.976 258.196C515.976 258.196 515.976 258.196 515.976 258.196C515.976 258.196 515.976 258.196 515.976 258.196C515.976 258.196 515.976 258.196 515.976 258.196C515.976 258.196 515.976 258.196 515.976 258.196C515.976 258.196 515.976 258.196 515.976 258.196C515.976 258.196 515.976 258.196 515.976 258.196C515.976 258.196 515.976 258.196 515.976 258.196C515.976 258.196 515.976 258.196 515.976 258.196C515.976 258.196 515.976 258.196 515.976 258.196C515.976 258.196 515.976 258.196 515.976 258.196C515.976 258.196 515.976 258.196 515.976 258.196C515.976 258.196 515.976 258.196 515.976 258.196C515.976 258.196 515.976 258.196 515.976 258.196C515.976 258.196 515.976 258.196 515.976 258.196C515.976 258.196 515.976 258.196 515.976 258.196C515.976 258.196 515.976 258.196 515.976 258.196C515.976 258.196 515.976 258.196 515.976 258.196C515.976 258.196 515.976 258.196 515.976 258.196C515.976 258.196 515.976 258.196 515.976 258.196C515.976 258.196 515.976 258.196 515.976 258.196C515.976 258.196 515.976 258.196 515.976 258.196C515.976 258.196 515.976 258.196 515.976 258.196C515.976 258.196 515.976 258.196 515.976 258.196C515.976 258.196 515.976 258.196 515.976 258.196C515.976 258.196 515.976 258.196 515.976 258.196C515.976 258.196 515.976 258.196 515.976 258.196C515.976 258.196 515.976 258.196 515.976 258.196C515.976 258.196 515.976 258.196 515.976 258.196C515.976 258.196 515.976 258.196 515.976 258.196C515.976 258.196 515.976 258.196 515.976 258.196C515.976 258.196 515.976 258.196 515.976 258.196C515.976 258.196 515.976 258.196 515.976 258.196C515.976 258.196 515.976 258.196 515.976 258.196C515.976 258.196 515.976 258.196 515.976 258.196C515.976 258.196 515.976 258.196 515.976 258.196C515.976 258.196 515.976 258.196 515.976 258.196C515.976 258.196 515.976 258.196 515.976 258.196C515.976 258.196 515.976 258.196 515.977 258.196C515.977 258.196 515.977 258.196 515.977 258.196C515.977 258.196 515.977 258.196 515.977 258.196C515.977 258.196 515.977 258.196 515.977 258.196C515.977 258.196 515.977 258.196 515.977 258.196C515.977 258.196 515.977 258.196 515.977 258.196C515.977 258.196 515.977 258.196 515.977 258.196C515.977 258.196 515.977 258.196 515.977 258.196C515.977 258.196 515.977 258.196 515.977 258.196C515.977 258.196 515.977 258.196 515.977 258.196C515.977 258.196 515.977 258.196 515.977 258.196C515.977 258.196 515.977 258.196 515.977 258.196C515.977 258.196 515.977 258.196 515.977 258.196C515.977 258.196 515.977 258.196 515.977 258.196C515.977 258.196 515.977 258.196 515.977 258.196C515.977 258.196 515.977 258.196 515.977 258.196C515.977 258.196 515.977 258.196 515.977 258.196C515.977 258.196 515.977 258.196 515.977 258.196C515.977 258.196 515.977 258.196 515.977 258.196C515.977 258.196 515.977 258.196 515.977 258.196C515.977 258.196 515.977 258.196 515.977 258.196C515.977 258.196 515.977 258.196 515.977 258.196C515.977 258.196 515.977 258.196 515.977 258.196C515.977 258.196 515.977 258.196 515.977 258.196C515.977 258.196 515.977 258.196 515.977 258.196C515.977 258.196 515.977 258.196 515.977 258.196C515.977 258.196 515.977 258.196 515.977 258.196C515.977 258.196 515.977 258.196 515.977 258.196C515.977 258.196 515.977 258.196 515.978 258.196C515.978 258.196 515.978 258.196 515.978 258.196C515.978 258.196 515.978 258.196 515.978 258.196C515.978 258.196 515.978 258.196 515.978 258.196C515.978 258.196 515.978 258.196 515.978 258.196C515.978 258.196 515.978 258.196 515.978 258.196C515.978 258.196 515.978 258.196 515.978 258.196C515.978 258.196 515.978 258.196 515.978 258.196C515.978 258.196 515.978 258.196 515.978 258.196C515.978 258.196 515.978 258.196 515.978 258.196C515.978 258.196 515.978 258.196 515.978 258.196C515.978 258.196 515.978 258.196 515.978 258.196C515.978 258.196 515.978 258.196 515.978 258.196C515.978 258.196 515.978 258.196 515.978 258.196C515.978 258.196 515.978 258.196 515.978 258.196C515.978 258.196 515.978 258.196 515.978 258.196C515.978 258.196 515.978 258.196 515.978 258.196C515.978 258.196 515.978 258.196 515.978 258.196C515.978 258.196 515.978 258.196 515.978 258.196C515.978 258.196 515.978 258.196 515.978 258.196C515.979 258.196 515.979 258.196 515.979 258.196C515.979 258.196 515.979 258.196 515.979 258.196C515.979 258.196 515.979 258.196 515.979 258.196C515.979 258.196 515.979 258.196 515.979 258.196C515.979 258.196 515.979 258.196 515.979 258.196C515.979 258.196 515.979 258.196 515.979 258.196C515.979 258.196 515.979 258.196 515.979 258.196C515.979 258.196 515.979 258.196 515.979 258.196C515.979 258.196 515.979 258.196 515.979 258.196C515.979 258.196 515.979 258.196 515.979 258.196C515.979 258.196 515.979 258.196 515.979 258.196C515.979 258.196 515.979 258.196 515.979 258.196C515.979 258.196 515.979 258.196 515.979 258.196C515.979 258.196 515.979 258.196 515.979 258.196C515.979 258.196 515.979 258.196 515.979 258.196C515.979 258.196 515.979 258.196 515.98 258.196C515.98 258.196 515.98 258.196 515.98 258.196C515.98 258.196 515.98 258.196 515.98 258.196C515.98 258.196 515.98 258.196 515.98 258.196C515.98 258.196 515.98 258.196 515.98 258.196C515.98 258.196 515.98 258.196 515.98 258.196C515.98 258.196 515.98 258.196 515.98 258.196C515.98 258.196 515.98 258.196 515.98 258.196C515.98 258.196 515.98 258.196 515.98 258.196C515.98 258.196 515.98 258.196 515.98 258.196C515.98 258.196 515.98 258.196 515.98 258.196C515.98 258.196 515.98 258.196 515.98 258.196C515.98 258.196 515.98 258.196 515.98 258.196C515.98 258.196 515.98 258.196 515.98 258.196C515.981 258.196 515.981 258.196 515.981 258.196C515.981 258.196 515.981 258.196 515.981 258.196C515.981 258.196 515.981 258.196 515.981 258.196C515.981 258.196 515.981 258.196 515.981 258.196C515.981 258.196 515.981 258.196 515.981 258.196C515.981 258.196 515.981 258.196 515.981 258.196C515.981 258.196 515.981 258.196 515.981 258.196C515.981 258.196 515.981 258.196 515.981 258.196C515.981 258.196 515.981 258.196 515.981 258.196C515.981 258.196 515.981 258.196 515.981 258.196C515.981 258.196 515.981 258.196 515.981 258.196C515.981 258.196 515.981 258.196 515.982 258.196C515.982 258.196 515.982 258.196 515.982 258.196C515.982 258.196 515.982 258.196 515.982 258.196C515.982 258.196 515.982 258.196 515.982 258.196C515.982 258.196 515.982 258.196 515.982 258.196C515.982 258.196 515.982 258.196 515.982 258.196C515.982 258.196 515.982 258.196 515.982 258.196C515.982 258.196 515.982 258.196 515.982 258.196C515.982 258.196 515.982 258.196 515.982 258.196C515.982 258.196 515.982 258.196 515.982 258.196C515.982 258.196 515.982 258.196 515.982 258.196C515.983 258.196 515.983 258.196 515.983 258.196C515.983 258.196 515.983 258.196 515.983 258.196C515.983 258.196 515.983 258.196 515.983 258.196C515.983 258.196 515.983 258.196 515.983 258.196C515.983 258.196 515.983 258.196 515.983 258.196C515.983 258.196 515.983 258.196 515.983 258.196C515.983 258.196 515.983 258.196 515.983 258.196C515.983 258.196 515.983 258.196 515.983 258.196C515.983 258.196 515.983 258.196 515.983 258.196C515.983 258.196 515.983 258.196 515.984 258.196C515.984 258.196 515.984 258.196 515.984 258.196C515.984 258.196 515.984 258.196 515.984 258.196C515.984 258.196 515.984 258.196 515.984 258.196C515.984 258.196 515.984 258.196 515.984 258.196C515.984 258.196 515.984 258.196 515.984 258.196C515.984 258.196 515.984 258.196 515.984 258.196C515.984 258.196 515.984 258.196 515.984 258.196C515.984 258.196 515.984 258.196 515.984 258.196C515.984 258.196 515.985 258.196 515.985 258.196C515.985 258.196 515.985 258.196 515.985 258.196C515.985 258.196 515.985 258.196 515.985 258.196C515.985 258.196 515.985 258.196 515.985 258.196C515.985 258.196 515.985 258.196 515.985 258.196C515.985 258.196 515.985 258.196 515.985 258.196C515.985 258.196 515.985 258.196 515.985 258.196C515.985 258.196 515.985 258.196 515.985 258.196C515.985 258.196 515.986 258.196 515.986 258.196C515.986 258.196 515.986 258.196 515.986 258.196C515.986 258.196 515.986 258.196 515.986 258.196C515.986 258.196 515.986 258.196 515.986 258.196C515.986 258.196 515.986 258.196 515.986 258.196C515.986 258.196 515.986 258.196 515.986 258.196C515.986 258.196 515.986 258.196 515.986 258.196C515.986 258.196 515.986 258.196 515.986 258.196C515.987 258.196 515.987 258.196 515.987 258.196C515.987 258.196 515.987 258.196 515.987 258.196C515.987 258.196 515.987 258.196 515.987 258.196C515.987 258.196 515.987 258.196 515.987 258.196C515.987 258.196 515.987 258.196 515.987 258.196C515.987 258.196 515.987 258.196 515.987 258.196C515.987 258.196 515.987 258.196 515.987 258.196C515.988 258.196 515.988 258.196 515.988 258.196C515.988 258.196 515.988 258.196 515.988 258.196C515.988 258.196 515.988 258.196 515.988 258.196C515.988 258.196 515.988 258.196 515.988 258.196C515.988 258.196 515.988 258.196 515.988 258.196C515.988 258.196 515.988 258.196 515.988 258.196C515.988 258.196 515.988 258.196 515.989 258.196C515.989 258.196 515.989 258.196 515.989 258.196C515.989 258.196 515.989 258.196 515.989 258.196C515.989 258.196 515.989 258.196 515.989 258.196C515.989 258.196 515.989 258.196 515.989 258.196C515.989 258.196 515.989 258.196 515.989 258.196C515.989 258.196 515.989 258.196 515.989 258.196C515.99 258.196 515.99 258.196 515.99 258.196C515.99 258.196 515.99 258.196 515.99 258.196C515.99 258.196 515.99 258.196 515.99 258.196C515.99 258.196 515.99 258.196 515.99 258.196C515.99 258.196 515.99 258.196 515.99 258.196C515.99 258.196 515.99 258.196 515.99 258.196C515.99 258.196 515.991 258.196 515.991 258.196C515.991 258.196 515.991 258.196 515.991 258.196C515.991 258.196 515.991 258.196 515.991 258.196C515.991 258.196 515.991 258.196 515.991 258.196C515.991 258.196 515.991 258.196 515.991 258.196C515.991 258.196 515.991 258.196 515.991 258.196C515.992 258.196 515.992 258.196 515.992 258.196C515.992 258.196 515.992 258.196 515.992 258.196C515.992 258.196 515.992 258.196 515.992 258.196C515.992 258.196 515.992 258.196 515.992 258.196C515.992 258.196 515.992 258.196 515.992 258.196C515.992 258.196 515.992 258.196 515.993 258.196C515.993 258.196 515.993 258.196 515.993 258.196C515.993 258.196 515.993 258.196 515.993 258.196C515.993 258.196 515.993 258.196 515.993 258.196C515.993 258.196 515.993 258.196 515.993 258.196C515.993 258.196 515.993 258.196 515.993 258.196C515.994 258.196 515.994 258.196 515.994 258.196C515.994 258.196 515.994 258.196 515.994 258.196C515.994 258.196 515.994 258.196 515.994 258.196C515.994 258.196 515.994 258.196 515.994 258.196C515.994 258.196 515.994 258.196 515.994 258.196C515.994 258.196 515.995 258.196 515.995 258.196C515.995 258.196 515.995 258.196 515.995 258.196C515.995 258.196 515.995 258.196 515.995 258.196C515.995 258.196 515.995 258.196 515.995 258.196C515.995 258.196 515.995 258.196 515.995 258.196C515.995 258.196 515.996 258.196 515.996 258.196C515.996 258.196 515.996 258.196 515.996 258.196C515.996 258.196 515.996 258.196 515.996 258.196C515.996 258.196 515.996 258.196 515.996 258.196C515.996 258.196 515.996 258.196 515.996 258.196C515.997 258.196 515.997 258.196 515.997 258.196C515.997 258.196 515.997 258.196 515.997 258.196C515.997 258.196 515.997 258.196 515.997 258.196C515.997 258.196 515.997 258.196 515.997 258.196C515.997 258.196 515.997 258.196 515.998 258.196C515.998 258.196 515.998 258.196 515.998 258.196C515.998 258.196 515.998 258.196 515.998 258.196C515.998 258.196 515.998 258.196 515.998 258.196C515.998 258.196 515.998 258.196 515.998 258.196C515.998 258.196 515.999 258.196 515.999 258.196C515.999 258.196 515.999 258.196 515.999 258.196C515.999 258.196 515.999 258.196 515.999 258.196C515.999 258.196 515.999 258.196 515.999 258.196C515.999 258.196 515.999 258.196 516 258.196C516 258.196 516 258.196 516 258.196C516 258.196 516 258.196 516 258.196C516 258.196 516 258.196 516 258.196C516 258.196 516 258.196 516 258.196C516.001 258.196 516.001 258.196 516.001 258.196C516.001 258.196 516.001 258.196 516.001 258.196C516.001 258.196 516.001 258.196 516.001 258.196C516.001 258.196 516.001 258.196 516.001 258.196C516.001 258.196 516.002 258.196 516.002 258.196C516.002 258.196 516.002 258.196 516.002 258.196C516.002 258.196 516.002 258.196 516.002 258.196C516.002 258.196 516.002 258.196 516.002 258.196C516.002 258.196 516.003 258.196 516.003 258.196C516.003 258.196 516.003 258.196 516.003 258.196C516.003 258.196 516.003 258.196 516.003 258.196C516.003 258.196 516.003 258.196 516.003 258.196C516.003 258.196 516.004 258.196 516.004 258.196C516.004 258.196 516.004 258.196 516.004 258.196C516.004 258.196 516.004 258.196 516.004 258.196C516.004 258.196 516.004 258.196 516.004 258.196C516.004 258.196 516.005 258.196 516.005 258.196C516.005 258.196 516.005 258.196 516.005 258.196C516.005 258.196 516.005 258.196 516.005 258.196C516.005 258.196 516.005 258.196 516.005 258.196C516.006 258.196 516.006 258.196 516.006 258.196C516.006 258.196 516.006 258.196 516.006 258.196C516.006 258.196 516.006 258.196 516.006 258.196C516.006 258.196 516.006 258.196 516.007 258.196C516.007 258.196 516.007 258.196 516.007 258.196C516.007 258.196 516.007 258.196 516.007 258.196C516.007 258.196 516.007 258.196 516.007 258.196C516.007 258.196 516.008 258.196 516.008 258.196C516.008 258.196 516.008 258.196 516.008 258.196C516.008 258.196 516.008 258.196 516.008 258.196C516.008 258.196 516.008 258.196 516.008 258.196C516.009 258.196 516.009 258.196 516.009 258.196C516.009 258.196 516.009 258.196 516.009 258.196C516.009 258.196 516.009 258.196 516.009 258.196C516.009 258.196 516.01 258.196 516.01 258.196C516.01 258.196 516.01 258.196 516.01 258.196C516.01 258.196 516.01 258.196 516.01 258.196C516.01 258.196 516.01 258.196 516.01 258.196C516.011 258.196 516.011 258.196 516.011 258.196C516.011 258.196 516.011 258.196 516.011 258.196C516.011 258.196 516.011 258.196 516.011 258.196C516.011 258.196 516.012 258.196 516.012 258.196C516.012 258.196 516.012 258.196 516.012 258.196C516.012 258.196 516.012 258.196 516.012 258.196C516.012 258.196 516.012 258.196 516.013 258.196C516.013 258.196 516.013 258.196 516.013 258.196C516.013 258.196 516.013 258.196 516.013 258.196C516.013 258.196 516.013 258.196 516.014 258.196C516.014 258.196 516.014 258.196 516.014 258.196C516.014 258.196 516.014 258.196 516.014 258.196C516.014 258.196 516.014 258.196 516.014 258.196C516.015 258.196 516.015 258.196 516.015 258.196C516.015 258.196 516.015 258.196 516.015 258.196C516.015 258.196 516.015 258.196 516.015 258.196C516.016 258.196 516.016 258.196 516.016 258.196C516.016 258.196 516.016 258.196 516.016 258.196C516.016 258.196 516.016 258.196 516.016 258.196C516.016 258.196 516.017 258.196 516.017 258.196C516.017 258.196 516.017 258.196 516.017 258.196C516.017 258.196 516.017 258.196 516.017 258.196C516.017 258.196 516.018 258.196 516.018 258.196C516.018 258.196 516.018 258.196 516.018 258.196C516.018 258.196 516.018 258.196 516.018 258.196C516.018 258.196 516.019 258.196 516.019 258.196C516.019 258.196 516.019 258.196 516.019 258.196C516.019 258.196 516.019 258.196 516.019 258.196C516.02 258.196 516.02 258.196 516.02 258.196C516.02 258.196 516.02 258.196 516.02 258.196C516.02 258.196 516.02 258.196 516.02 258.196C516.021 258.196 516.021 258.196 516.021 258.196C516.021 258.196 516.021 258.196 516.021 258.196C516.021 258.196 516.021 258.196 516.021 258.196C516.022 258.196 516.022 258.196 516.022 258.196C516.022 258.196 516.022 258.196 516.022 258.196C516.022 258.196 516.022 258.196 516.023 258.196C516.023 258.196 516.023 258.196 516.023 258.196C516.023 258.196 516.023 258.196 516.023 258.196C516.023 258.196 516.024 258.196 516.024 258.196C516.024 258.196 516.024 258.196 516.024 258.196C516.024 258.196 516.024 258.196 516.024 258.196C516.024 258.196 516.025 258.196 516.025 258.196C516.025 258.196 516.025 258.196 516.025 258.196C516.025 258.196 516.025 258.196 516.025 258.196C516.026 258.196 516.026 258.196 516.026 258.196C516.026 258.196 516.026 258.196 516.026 258.196C516.026 258.196 516.026 258.196 516.027 258.196C516.027 258.196 516.027 258.196 516.027 258.196C516.027 258.196 516.027 258.196 516.027 258.196C516.027 258.196 516.028 258.196 516.028 258.196C516.028 258.196 516.028 258.196 516.028 258.196C516.028 258.196 516.028 258.196 516.029 258.196C516.029 258.196 516.029 258.196 516.029 258.196C516.029 258.196 516.029 258.196 516.029 258.196C516.029 258.196 516.03 258.196 516.03 258.196C516.03 258.196 516.03 258.196 516.03 258.196C516.03 258.196 516.03 258.196 516.03 258.196C516.031 258.196 516.031 258.196 516.031 258.196C516.031 258.196 516.031 258.196 516.031 258.196C516.031 258.196 516.032 258.196 516.032 258.196C516.032 258.196 516.032 258.196 516.032 258.196C516.032 258.196 516.032 258.196 516.033 258.196C516.033 258.196 516.033 258.196 516.033 258.196C516.033 258.196 516.033 258.196 516.033 258.196C516.033 258.196 516.034 258.196 516.034 258.196C516.034 258.196 516.034 258.196 516.034 258.196C516.034 258.196 516.034 258.196 516.035 258.196C516.035 258.196 516.035 258.196 516.035 258.196C516.035 258.196 516.035 258.196 516.035 258.196C516.036 258.196 516.036 258.196 516.036 258.196C516.036 258.196 516.036 258.196 516.036 258.196C516.036 258.196 516.037 258.196 516.037 258.196C516.037 258.196 516.037 258.196 516.037 258.196C516.037 258.196 516.037 258.196 516.038 258.196C516.038 258.196 516.038 258.196 516.038 258.196C516.038 258.196 516.038 258.196 516.038 258.196C516.039 258.196 516.039 258.196 516.039 258.196C516.039 258.196 516.039 258.196 516.039 258.196C516.039 258.196 516.04 258.196 516.04 258.196C516.04 258.196 516.04 258.196 516.04 258.196C516.04 258.196 516.04 258.196 516.041 258.196C516.041 258.196 516.041 258.196 516.041 258.196C516.041 258.196 516.041 258.196 516.042 258.196C516.042 258.196 516.042 258.196 516.042 258.196C516.042 258.196 516.042 258.196 516.042 258.196C516.043 258.196 516.043 258.196 516.043 258.196C516.043 258.196 516.043 258.196 516.043 258.196C516.043 258.196 516.044 258.196 516.044 258.196C516.044 258.196 516.044 258.196 516.044 258.196C516.044 258.196 516.045 258.196 516.045 258.196C516.045 258.196 516.045 258.196 516.045 258.196C516.045 258.196 516.045 258.196 516.046 258.196C516.046 258.196 516.046 258.196 516.046 258.196C516.046 258.196 516.046 258.196 516.047 258.196C516.047 258.196 516.047 258.196 516.047 258.196C516.047 258.196 516.047 258.196 516.048 258.196C516.048 258.196 516.048 258.196 516.048 258.196C516.048 258.196 516.048 258.196 516.048 258.196C516.049 258.196 516.049 258.196 516.049 258.196C516.049 258.196 516.049 258.196 516.049 258.196C516.05 258.196 516.05 258.196 516.05 258.196C516.05 258.196 516.05 258.196 516.05 258.196C516.051 258.196 516.051 258.196 516.051 258.196C516.051 258.196 516.051 258.196 516.051 258.196C516.052 258.196 516.052 258.196 516.052 258.196C516.052 258.196 516.052 258.196 516.052 258.196C516.053 258.196 516.053 258.196 516.053 258.196C516.053 258.196 516.053 258.196 516.053 258.196C516.054 258.196 516.054 258.196 516.054 258.196C516.054 258.196 516.054 258.196 516.054 258.196C516.055 258.196 516.055 258.196 516.055 258.196C516.055 258.196 516.055 258.196 516.055 258.196C516.056 258.196 516.056 258.196 516.056 258.196C516.056 258.196 516.056 258.196 516.056 258.196C516.057 258.196 516.057 258.196 516.057 258.196C516.057 258.196 516.057 258.196 516.057 258.196C516.058 258.196 516.058 258.196 516.058 258.196C516.058 258.196 516.058 258.196 516.059 258.196C516.059 258.196 516.059 258.196 516.059 258.196C516.059 258.196 516.059 258.196 516.06 258.196C516.06 258.196 516.06 258.196 516.06 258.196C516.06 258.196 516.06 258.196 516.061 258.196C516.061 258.196 516.061 258.196 516.061 258.196C516.061 258.196 516.062 258.196 516.062 258.196C516.062 258.196 516.062 258.196 516.062 258.196C516.062 258.196 516.063 258.196 516.063 258.196C516.063 258.196 516.063 258.196 516.063 258.196C516.064 258.196 516.064 258.196 516.064 258.196C516.064 258.196 516.064 258.196 516.064 258.196C516.065 258.196 516.065 258.196 516.065 258.196C516.065 258.196 516.065 258.196 516.066 258.196C516.066 258.196 516.066 258.196 516.066 258.196C516.066 258.196 516.066 258.196 516.067 258.196C516.067 258.196 516.067 258.196 516.067 258.196C516.067 258.196 516.068 258.196 516.068 258.196C516.068 258.196 516.068 258.196 516.068 258.196C516.068 258.196 516.069 258.196 516.069 258.196C516.069 258.196 516.069 258.196 516.069 258.196C516.07 258.196 516.07 258.196 516.07 258.196C516.07 258.196 516.07 258.196 516.071 258.196C516.071 258.196 516.071 258.196 516.071 258.196C516.071 258.196 516.072 258.196 516.072 258.196C516.072 258.196 516.072 258.196 516.072 258.196C516.073 258.196 516.073 258.196 516.073 258.196C516.073 258.196 516.073 258.196 516.073 258.196C516.074 258.196 516.074 258.196 516.074 258.196C516.074 258.196 516.074 258.196 516.075 258.196C516.075 258.196 516.075 258.196 516.075 258.196C516.075 258.196 516.076 258.196 516.076 258.196C516.076 258.196 516.076 258.196 516.076 258.196C516.077 258.196 516.077 258.196 516.077 258.196C516.077 258.196 516.077 258.196 516.078 258.196C516.078 258.196 516.078 258.196 516.078 258.196C516.078 258.196 516.079 258.196 516.079 258.196V256.257C516.079 256.257 516.078 256.257 516.078 256.257C516.078 256.257 516.078 256.257 516.078 256.257C516.077 256.257 516.077 256.257 516.077 256.257C516.077 256.257 516.077 256.257 516.076 256.257C516.076 256.257 516.076 256.257 516.076 256.257C516.076 256.257 516.075 256.257 516.075 256.257C516.075 256.257 516.075 256.257 516.075 256.257C516.074 256.257 516.074 256.257 516.074 256.257C516.074 256.257 516.074 256.257 516.073 256.257C516.073 256.257 516.073 256.257 516.073 256.257C516.073 256.257 516.073 256.257 516.072 256.257C516.072 256.257 516.072 256.257 516.072 256.257C516.072 256.257 516.071 256.257 516.071 256.257C516.071 256.257 516.071 256.257 516.071 256.257C516.07 256.257 516.07 256.257 516.07 256.257C516.07 256.257 516.07 256.257 516.069 256.257C516.069 256.257 516.069 256.257 516.069 256.257C516.069 256.257 516.068 256.257 516.068 256.257C516.068 256.257 516.068 256.257 516.068 256.257C516.068 256.257 516.067 256.257 516.067 256.257C516.067 256.257 516.067 256.257 516.067 256.257C516.066 256.257 516.066 256.257 516.066 256.257C516.066 256.257 516.066 256.257 516.066 256.257C516.065 256.257 516.065 256.257 516.065 256.257C516.065 256.257 516.065 256.257 516.064 256.257C516.064 256.257 516.064 256.257 516.064 256.257C516.064 256.257 516.064 256.257 516.063 256.257C516.063 256.257 516.063 256.257 516.063 256.257C516.063 256.257 516.062 256.257 516.062 256.257C516.062 256.257 516.062 256.257 516.062 256.257C516.062 256.257 516.061 256.257 516.061 256.257C516.061 256.257 516.061 256.257 516.061 256.257C516.06 256.257 516.06 256.257 516.06 256.257C516.06 256.257 516.06 256.257 516.06 256.257C516.059 256.257 516.059 256.257 516.059 256.257C516.059 256.257 516.059 256.257 516.059 256.257C516.058 256.257 516.058 256.257 516.058 256.257C516.058 256.257 516.058 256.257 516.057 256.257C516.057 256.257 516.057 256.257 516.057 256.257C516.057 256.257 516.057 256.257 516.056 256.257C516.056 256.257 516.056 256.257 516.056 256.257C516.056 256.257 516.056 256.257 516.055 256.257C516.055 256.257 516.055 256.257 516.055 256.257C516.055 256.257 516.055 256.257 516.054 256.257C516.054 256.257 516.054 256.257 516.054 256.257C516.054 256.257 516.054 256.257 516.053 256.257C516.053 256.257 516.053 256.257 516.053 256.257C516.053 256.257 516.053 256.257 516.052 256.257C516.052 256.257 516.052 256.257 516.052 256.257C516.052 256.257 516.052 256.257 516.051 256.257C516.051 256.257 516.051 256.257 516.051 256.257C516.051 256.257 516.051 256.257 516.05 256.257C516.05 256.257 516.05 256.257 516.05 256.257C516.05 256.257 516.05 256.257 516.049 256.257C516.049 256.257 516.049 256.257 516.049 256.257C516.049 256.257 516.049 256.257 516.048 256.257C516.048 256.257 516.048 256.257 516.048 256.257C516.048 256.257 516.048 256.257 516.048 256.257C516.047 256.257 516.047 256.257 516.047 256.257C516.047 256.257 516.047 256.257 516.047 256.257C516.046 256.257 516.046 256.257 516.046 256.257C516.046 256.257 516.046 256.257 516.046 256.257C516.045 256.257 516.045 256.257 516.045 256.257C516.045 256.257 516.045 256.257 516.045 256.257C516.045 256.257 516.044 256.257 516.044 256.257C516.044 256.257 516.044 256.257 516.044 256.257C516.044 256.257 516.043 256.257 516.043 256.257C516.043 256.257 516.043 256.257 516.043 256.257C516.043 256.257 516.043 256.257 516.042 256.257C516.042 256.257 516.042 256.257 516.042 256.257C516.042 256.257 516.042 256.257 516.042 256.257C516.041 256.257 516.041 256.257 516.041 256.257C516.041 256.257 516.041 256.257 516.041 256.257C516.04 256.257 516.04 256.257 516.04 256.257C516.04 256.257 516.04 256.257 516.04 256.257C516.04 256.257 516.039 256.257 516.039 256.257C516.039 256.257 516.039 256.257 516.039 256.257C516.039 256.257 516.039 256.257 516.038 256.257C516.038 256.257 516.038 256.257 516.038 256.257C516.038 256.257 516.038 256.257 516.038 256.257C516.037 256.257 516.037 256.257 516.037 256.257C516.037 256.257 516.037 256.257 516.037 256.257C516.037 256.257 516.036 256.257 516.036 256.257C516.036 256.257 516.036 256.257 516.036 256.257C516.036 256.257 516.036 256.257 516.035 256.257C516.035 256.257 516.035 256.257 516.035 256.257C516.035 256.257 516.035 256.257 516.035 256.257C516.034 256.257 516.034 256.257 516.034 256.257C516.034 256.257 516.034 256.257 516.034 256.257C516.034 256.257 516.033 256.257 516.033 256.257C516.033 256.257 516.033 256.257 516.033 256.257C516.033 256.257 516.033 256.257 516.033 256.257C516.032 256.257 516.032 256.257 516.032 256.257C516.032 256.257 516.032 256.257 516.032 256.257C516.032 256.257 516.031 256.257 516.031 256.257C516.031 256.257 516.031 256.257 516.031 256.257C516.031 256.257 516.031 256.257 516.03 256.257C516.03 256.257 516.03 256.257 516.03 256.257C516.03 256.257 516.03 256.257 516.03 256.257C516.03 256.257 516.029 256.257 516.029 256.257C516.029 256.257 516.029 256.257 516.029 256.257C516.029 256.257 516.029 256.257 516.029 256.257C516.028 256.257 516.028 256.257 516.028 256.257C516.028 256.257 516.028 256.257 516.028 256.257C516.028 256.257 516.027 256.257 516.027 256.257C516.027 256.257 516.027 256.257 516.027 256.257C516.027 256.257 516.027 256.257 516.027 256.257C516.026 256.257 516.026 256.257 516.026 256.257C516.026 256.257 516.026 256.257 516.026 256.257C516.026 256.257 516.026 256.257 516.025 256.257C516.025 256.257 516.025 256.257 516.025 256.257C516.025 256.257 516.025 256.257 516.025 256.257C516.025 256.257 516.024 256.257 516.024 256.257C516.024 256.257 516.024 256.257 516.024 256.257C516.024 256.257 516.024 256.257 516.024 256.257C516.024 256.257 516.023 256.257 516.023 256.257C516.023 256.257 516.023 256.257 516.023 256.257C516.023 256.257 516.023 256.257 516.023 256.257C516.022 256.257 516.022 256.257 516.022 256.257C516.022 256.257 516.022 256.257 516.022 256.257C516.022 256.257 516.022 256.257 516.021 256.257C516.021 256.257 516.021 256.257 516.021 256.257C516.021 256.257 516.021 256.257 516.021 256.257C516.021 256.257 516.021 256.257 516.02 256.257C516.02 256.257 516.02 256.257 516.02 256.257C516.02 256.257 516.02 256.257 516.02 256.257C516.02 256.257 516.02 256.257 516.019 256.257C516.019 256.257 516.019 256.257 516.019 256.257C516.019 256.257 516.019 256.257 516.019 256.257C516.019 256.257 516.018 256.257 516.018 256.257C516.018 256.257 516.018 256.257 516.018 256.257C516.018 256.257 516.018 256.257 516.018 256.257C516.018 256.257 516.017 256.257 516.017 256.257C516.017 256.257 516.017 256.257 516.017 256.257C516.017 256.257 516.017 256.257 516.017 256.257C516.017 256.257 516.016 256.257 516.016 256.257C516.016 256.257 516.016 256.257 516.016 256.257C516.016 256.257 516.016 256.257 516.016 256.257C516.016 256.257 516.016 256.257 516.015 256.257C516.015 256.257 516.015 256.257 516.015 256.257C516.015 256.257 516.015 256.257 516.015 256.257C516.015 256.257 516.015 256.257 516.014 256.257C516.014 256.257 516.014 256.257 516.014 256.257C516.014 256.257 516.014 256.257 516.014 256.257C516.014 256.257 516.014 256.257 516.014 256.257C516.013 256.257 516.013 256.257 516.013 256.257C516.013 256.257 516.013 256.257 516.013 256.257C516.013 256.257 516.013 256.257 516.013 256.257C516.012 256.257 516.012 256.257 516.012 256.257C516.012 256.257 516.012 256.257 516.012 256.257C516.012 256.257 516.012 256.257 516.012 256.257C516.012 256.257 516.011 256.257 516.011 256.257C516.011 256.257 516.011 256.257 516.011 256.257C516.011 256.257 516.011 256.257 516.011 256.257C516.011 256.257 516.011 256.257 516.01 256.257C516.01 256.257 516.01 256.257 516.01 256.257C516.01 256.257 516.01 256.257 516.01 256.257C516.01 256.257 516.01 256.257 516.01 256.257C516.01 256.257 516.009 256.257 516.009 256.257C516.009 256.257 516.009 256.257 516.009 256.257C516.009 256.257 516.009 256.257 516.009 256.257C516.009 256.257 516.009 256.257 516.008 256.257C516.008 256.257 516.008 256.257 516.008 256.257C516.008 256.257 516.008 256.257 516.008 256.257C516.008 256.257 516.008 256.257 516.008 256.257C516.008 256.257 516.007 256.257 516.007 256.257C516.007 256.257 516.007 256.257 516.007 256.257C516.007 256.257 516.007 256.257 516.007 256.257C516.007 256.257 516.007 256.257 516.007 256.257C516.006 256.257 516.006 256.257 516.006 256.257C516.006 256.257 516.006 256.257 516.006 256.257C516.006 256.257 516.006 256.257 516.006 256.257C516.006 256.257 516.006 256.257 516.005 256.257C516.005 256.257 516.005 256.257 516.005 256.257C516.005 256.257 516.005 256.257 516.005 256.257C516.005 256.257 516.005 256.257 516.005 256.257C516.005 256.257 516.004 256.257 516.004 256.257C516.004 256.257 516.004 256.257 516.004 256.257C516.004 256.257 516.004 256.257 516.004 256.257C516.004 256.257 516.004 256.257 516.004 256.257C516.004 256.257 516.003 256.257 516.003 256.257C516.003 256.257 516.003 256.257 516.003 256.257C516.003 256.257 516.003 256.257 516.003 256.257C516.003 256.257 516.003 256.257 516.003 256.257C516.003 256.257 516.002 256.257 516.002 256.257C516.002 256.257 516.002 256.257 516.002 256.257C516.002 256.257 516.002 256.257 516.002 256.257C516.002 256.257 516.002 256.257 516.002 256.257C516.002 256.257 516.001 256.257 516.001 256.257C516.001 256.257 516.001 256.257 516.001 256.257C516.001 256.257 516.001 256.257 516.001 256.257C516.001 256.257 516.001 256.257 516.001 256.257C516.001 256.257 516.001 256.257 516 256.257C516 256.257 516 256.257 516 256.257C516 256.257 516 256.257 516 256.257C516 256.257 516 256.257 516 256.257C516 256.257 516 256.257 516 256.257C515.999 256.257 515.999 256.257 515.999 256.257C515.999 256.257 515.999 256.257 515.999 256.257C515.999 256.257 515.999 256.257 515.999 256.257C515.999 256.257 515.999 256.257 515.999 256.257C515.999 256.257 515.998 256.257 515.998 256.257C515.998 256.257 515.998 256.257 515.998 256.257C515.998 256.257 515.998 256.257 515.998 256.257C515.998 256.257 515.998 256.257 515.998 256.257C515.998 256.257 515.998 256.257 515.998 256.257C515.997 256.257 515.997 256.257 515.997 256.257C515.997 256.257 515.997 256.257 515.997 256.257C515.997 256.257 515.997 256.257 515.997 256.257C515.997 256.257 515.997 256.257 515.997 256.257C515.997 256.257 515.997 256.257 515.996 256.257C515.996 256.257 515.996 256.257 515.996 256.257C515.996 256.257 515.996 256.257 515.996 256.257C515.996 256.257 515.996 256.257 515.996 256.257C515.996 256.257 515.996 256.257 515.996 256.257C515.996 256.257 515.995 256.257 515.995 256.257C515.995 256.257 515.995 256.257 515.995 256.257C515.995 256.257 515.995 256.257 515.995 256.257C515.995 256.257 515.995 256.257 515.995 256.257C515.995 256.257 515.995 256.257 515.995 256.257C515.995 256.257 515.994 256.257 515.994 256.257C515.994 256.257 515.994 256.257 515.994 256.257C515.994 256.257 515.994 256.257 515.994 256.257C515.994 256.257 515.994 256.257 515.994 256.257C515.994 256.257 515.994 256.257 515.994 256.257C515.994 256.257 515.994 256.257 515.993 256.257C515.993 256.257 515.993 256.257 515.993 256.257C515.993 256.257 515.993 256.257 515.993 256.257C515.993 256.257 515.993 256.257 515.993 256.257C515.993 256.257 515.993 256.257 515.993 256.257C515.993 256.257 515.993 256.257 515.993 256.257C515.992 256.257 515.992 256.257 515.992 256.257C515.992 256.257 515.992 256.257 515.992 256.257C515.992 256.257 515.992 256.257 515.992 256.257C515.992 256.257 515.992 256.257 515.992 256.257C515.992 256.257 515.992 256.257 515.992 256.257C515.992 256.257 515.992 256.257 515.991 256.257C515.991 256.257 515.991 256.257 515.991 256.257C515.991 256.257 515.991 256.257 515.991 256.257C515.991 256.257 515.991 256.257 515.991 256.257C515.991 256.257 515.991 256.257 515.991 256.257C515.991 256.257 515.991 256.257 515.991 256.257C515.991 256.257 515.99 256.257 515.99 256.257C515.99 256.257 515.99 256.257 515.99 256.257C515.99 256.257 515.99 256.257 515.99 256.257C515.99 256.257 515.99 256.257 515.99 256.257C515.99 256.257 515.99 256.257 515.99 256.257C515.99 256.257 515.99 256.257 515.99 256.257C515.99 256.257 515.99 256.257 515.989 256.257C515.989 256.257 515.989 256.257 515.989 256.257C515.989 256.257 515.989 256.257 515.989 256.257C515.989 256.257 515.989 256.257 515.989 256.257C515.989 256.257 515.989 256.257 515.989 256.257C515.989 256.257 515.989 256.257 515.989 256.257C515.989 256.257 515.989 256.257 515.989 256.257C515.988 256.257 515.988 256.257 515.988 256.257C515.988 256.257 515.988 256.257 515.988 256.257C515.988 256.257 515.988 256.257 515.988 256.257C515.988 256.257 515.988 256.257 515.988 256.257C515.988 256.257 515.988 256.257 515.988 256.257C515.988 256.257 515.988 256.257 515.988 256.257C515.988 256.257 515.988 256.257 515.987 256.257C515.987 256.257 515.987 256.257 515.987 256.257C515.987 256.257 515.987 256.257 515.987 256.257C515.987 256.257 515.987 256.257 515.987 256.257C515.987 256.257 515.987 256.257 515.987 256.257C515.987 256.257 515.987 256.257 515.987 256.257C515.987 256.257 515.987 256.257 515.987 256.257C515.987 256.257 515.987 256.257 515.986 256.257C515.986 256.257 515.986 256.257 515.986 256.257C515.986 256.257 515.986 256.257 515.986 256.257C515.986 256.257 515.986 256.257 515.986 256.257C515.986 256.257 515.986 256.257 515.986 256.257C515.986 256.257 515.986 256.257 515.986 256.257C515.986 256.257 515.986 256.257 515.986 256.257C515.986 256.257 515.986 256.257 515.986 256.257C515.986 256.257 515.985 256.257 515.985 256.257C515.985 256.257 515.985 256.257 515.985 256.257C515.985 256.257 515.985 256.257 515.985 256.257C515.985 256.257 515.985 256.257 515.985 256.257C515.985 256.257 515.985 256.257 515.985 256.257C515.985 256.257 515.985 256.257 515.985 256.257C515.985 256.257 515.985 256.257 515.985 256.257C515.985 256.257 515.985 256.257 515.985 256.257C515.985 256.257 515.984 256.257 515.984 256.257C515.984 256.257 515.984 256.257 515.984 256.257C515.984 256.257 515.984 256.257 515.984 256.257C515.984 256.257 515.984 256.257 515.984 256.257C515.984 256.257 515.984 256.257 515.984 256.257C515.984 256.257 515.984 256.257 515.984 256.257C515.984 256.257 515.984 256.257 515.984 256.257C515.984 256.257 515.984 256.257 515.984 256.257C515.984 256.257 515.984 256.257 515.984 256.257C515.983 256.257 515.983 256.257 515.983 256.257C515.983 256.257 515.983 256.257 515.983 256.257C515.983 256.257 515.983 256.257 515.983 256.257C515.983 256.257 515.983 256.257 515.983 256.257C515.983 256.257 515.983 256.257 515.983 256.257C515.983 256.257 515.983 256.257 515.983 256.257C515.983 256.257 515.983 256.257 515.983 256.257C515.983 256.257 515.983 256.257 515.983 256.257C515.983 256.257 515.983 256.257 515.983 256.257C515.983 256.257 515.983 256.257 515.982 256.257C515.982 256.257 515.982 256.257 515.982 256.257C515.982 256.257 515.982 256.257 515.982 256.257C515.982 256.257 515.982 256.257 515.982 256.257C515.982 256.257 515.982 256.257 515.982 256.257C515.982 256.257 515.982 256.257 515.982 256.257C515.982 256.257 515.982 256.257 515.982 256.257C515.982 256.257 515.982 256.257 515.982 256.257C515.982 256.257 515.982 256.257 515.982 256.257C515.982 256.257 515.982 256.257 515.982 256.257C515.982 256.257 515.982 256.257 515.982 256.257C515.981 256.257 515.981 256.257 515.981 256.257C515.981 256.257 515.981 256.257 515.981 256.257C515.981 256.257 515.981 256.257 515.981 256.257C515.981 256.257 515.981 256.257 515.981 256.257C515.981 256.257 515.981 256.257 515.981 256.257C515.981 256.257 515.981 256.257 515.981 256.257C515.981 256.257 515.981 256.257 515.981 256.257C515.981 256.257 515.981 256.257 515.981 256.257C515.981 256.257 515.981 256.257 515.981 256.257C515.981 256.257 515.981 256.257 515.981 256.257C515.981 256.257 515.981 256.257 515.981 256.257C515.981 256.257 515.981 256.257 515.98 256.257C515.98 256.257 515.98 256.257 515.98 256.257C515.98 256.257 515.98 256.257 515.98 256.257C515.98 256.257 515.98 256.257 515.98 256.257C515.98 256.257 515.98 256.257 515.98 256.257C515.98 256.257 515.98 256.257 515.98 256.257C515.98 256.257 515.98 256.257 515.98 256.257C515.98 256.257 515.98 256.257 515.98 256.257C515.98 256.257 515.98 256.257 515.98 256.257C515.98 256.257 515.98 256.257 515.98 256.257C515.98 256.257 515.98 256.257 515.98 256.257C515.98 256.257 515.98 256.257 515.98 256.257C515.98 256.257 515.98 256.257 515.98 256.257C515.98 256.257 515.98 256.257 515.98 256.257C515.979 256.257 515.979 256.257 515.979 256.257C515.979 256.257 515.979 256.257 515.979 256.257C515.979 256.257 515.979 256.257 515.979 256.257C515.979 256.257 515.979 256.257 515.979 256.257C515.979 256.257 515.979 256.257 515.979 256.257C515.979 256.257 515.979 256.257 515.979 256.257C515.979 256.257 515.979 256.257 515.979 256.257C515.979 256.257 515.979 256.257 515.979 256.257C515.979 256.257 515.979 256.257 515.979 256.257C515.979 256.257 515.979 256.257 515.979 256.257C515.979 256.257 515.979 256.257 515.979 256.257C515.979 256.257 515.979 256.257 515.979 256.257C515.979 256.257 515.979 256.257 515.979 256.257C515.979 256.257 515.979 256.257 515.979 256.257C515.979 256.257 515.979 256.257 515.979 256.257C515.979 256.257 515.979 256.257 515.978 256.257C515.978 256.257 515.978 256.257 515.978 256.257C515.978 256.257 515.978 256.257 515.978 256.257C515.978 256.257 515.978 256.257 515.978 256.257C515.978 256.257 515.978 256.257 515.978 256.257C515.978 256.257 515.978 256.257 515.978 256.257C515.978 256.257 515.978 256.257 515.978 256.257C515.978 256.257 515.978 256.257 515.978 256.257C515.978 256.257 515.978 256.257 515.978 256.257C515.978 256.257 515.978 256.257 515.978 256.257C515.978 256.257 515.978 256.257 515.978 256.257C515.978 256.257 515.978 256.257 515.978 256.257C515.978 256.257 515.978 256.257 515.978 256.257C515.978 256.257 515.978 256.257 515.978 256.257C515.978 256.257 515.978 256.257 515.978 256.257C515.978 256.257 515.978 256.257 515.978 256.257C515.978 256.257 515.978 256.257 515.978 256.257C515.978 256.257 515.978 256.257 515.978 256.257C515.978 256.257 515.978 256.257 515.978 256.257C515.978 256.257 515.978 256.257 515.978 256.257C515.977 256.257 515.977 256.257 515.977 256.257C515.977 256.257 515.977 256.257 515.977 256.257C515.977 256.257 515.977 256.257 515.977 256.257C515.977 256.257 515.977 256.257 515.977 256.257C515.977 256.257 515.977 256.257 515.977 256.257C515.977 256.257 515.977 256.257 515.977 256.257C515.977 256.257 515.977 256.257 515.977 256.257C515.977 256.257 515.977 256.257 515.977 256.257C515.977 256.257 515.977 256.257 515.977 256.257C515.977 256.257 515.977 256.257 515.977 256.257C515.977 256.257 515.977 256.257 515.977 256.257C515.977 256.257 515.977 256.257 515.977 256.257C515.977 256.257 515.977 256.257 515.977 256.257C515.977 256.257 515.977 256.257 515.977 256.257C515.977 256.257 515.977 256.257 515.977 256.257C515.977 256.257 515.977 256.257 515.977 256.257C515.977 256.257 515.977 256.257 515.977 256.257C515.977 256.257 515.977 256.257 515.977 256.257C515.977 256.257 515.977 256.257 515.977 256.257C515.977 256.257 515.977 256.257 515.977 256.257C515.977 256.257 515.977 256.257 515.977 256.257C515.977 256.257 515.977 256.257 515.977 256.257C515.977 256.257 515.977 256.257 515.977 256.257C515.977 256.257 515.977 256.257 515.977 256.257C515.977 256.257 515.977 256.257 515.977 256.257C515.977 256.257 515.977 256.257 515.977 256.257C515.977 256.257 515.977 256.257 515.977 256.257C515.977 256.257 515.977 256.257 515.977 256.257C515.976 256.257 515.976 256.257 515.976 256.257C515.976 256.257 515.976 256.257 515.976 256.257C515.976 256.257 515.976 256.257 515.976 256.257C515.976 256.257 515.976 256.257 515.976 256.257C515.976 256.257 515.976 256.257 515.976 256.257C515.976 256.257 515.976 256.257 515.976 256.257C515.976 256.257 515.976 256.257 515.976 256.257C515.976 256.257 515.976 256.257 515.976 256.257C515.976 256.257 515.976 256.257 515.976 256.257C515.976 256.257 515.976 256.257 515.976 256.257C515.976 256.257 515.976 256.257 515.976 256.257C515.976 256.257 515.976 256.257 515.976 256.257C515.976 256.257 515.976 256.257 515.976 256.257C515.976 256.257 515.976 256.257 515.976 256.257C515.976 256.257 515.976 256.257 515.976 256.257C515.976 256.257 515.976 256.257 515.976 256.257C515.976 256.257 515.976 256.257 515.976 256.257C515.976 256.257 515.976 256.257 515.976 256.257C515.976 256.257 515.976 256.257 515.976 256.257C515.976 256.257 515.976 256.257 515.976 256.257C515.976 256.257 515.976 256.257 515.976 256.257C515.976 256.257 515.976 256.257 515.976 256.257C515.976 256.257 515.976 256.257 515.976 256.257C515.976 256.257 515.976 256.257 515.976 256.257C515.976 256.257 515.976 256.257 515.976 256.257C515.976 256.257 515.976 256.257 515.976 256.257C515.976 256.257 515.976 256.257 515.976 256.257C515.976 256.257 515.976 256.257 515.976 256.257C515.976 256.257 515.976 256.257 515.976 256.257C515.976 256.257 515.976 256.257 515.976 256.257C515.976 256.257 515.976 256.257 515.976 256.257C515.976 256.257 515.976 256.257 515.976 256.257C515.976 256.257 515.976 256.257 515.976 256.257C515.976 256.257 515.976 256.257 515.976 256.257C515.976 256.257 515.976 256.257 515.976 256.257C515.976 256.257 515.976 256.257 515.976 256.257C515.976 256.257 515.976 256.257 515.976 256.257C515.976 256.257 515.976 256.257 515.976 256.257C515.976 256.257 515.976 256.257 515.976 256.257C515.976 256.257 515.976 256.257 515.976 256.257C515.976 256.257 515.976 256.257 515.976 256.257C515.976 256.257 515.976 256.257 515.976 256.257C515.976 256.257 515.976 256.257 515.976 256.257C515.976 256.257 515.976 256.257 515.976 256.257C515.976 256.257 515.976 256.257 515.976 256.257C515.976 256.257 515.976 256.257 515.976 256.257C515.976 256.257 515.976 256.257 515.976 256.257C515.976 256.257 515.976 256.257 515.976 256.257C515.976 256.257 515.976 256.257 515.976 256.257C515.976 256.257 515.976 256.257 515.976 256.257C515.976 256.257 515.976 256.257 515.976 256.257C515.976 256.257 515.976 256.257 515.976 256.257C515.976 256.257 515.976 256.257 515.976 256.257C515.976 256.257 515.976 256.257 515.976 256.257C515.976 256.257 515.976 256.257 515.976 256.257C515.976 256.257 515.976 256.257 515.976 256.257C515.976 256.257 515.976 256.257 515.976 256.257C515.976 256.257 515.976 256.257 515.976 256.257C515.976 256.257 515.976 256.257 515.976 256.257C515.976 256.257 515.976 256.257 515.976 256.257C515.976 256.257 515.976 256.257 515.976 256.257C515.976 256.257 515.976 256.257 515.976 256.257C515.976 256.257 515.976 256.257 515.976 256.257C515.976 256.257 515.976 256.257 515.976 256.257C515.976 256.257 515.976 256.257 515.976 256.257C515.976 256.257 515.976 256.257 515.976 256.257C515.976 256.257 515.976 256.257 515.976 256.257C515.976 256.257 515.976 256.257 515.976 256.257C515.976 256.257 515.976 256.257 515.976 256.257C515.976 256.257 515.976 256.257 515.976 256.257C515.976 256.257 515.975 256.257 515.975 256.257C515.975 256.257 515.975 256.257 515.975 256.257C515.975 256.257 515.975 256.257 515.975 256.257C515.975 256.257 515.975 256.257 515.975 256.257C515.975 256.257 515.975 256.257 515.975 256.257C515.975 256.257 515.975 256.257 515.975 256.257C515.975 256.257 515.975 256.257 515.975 256.257C515.975 256.257 515.975 256.257 515.975 256.257C515.975 256.257 515.975 256.257 515.975 256.257C515.975 256.257 515.975 256.257 515.975 256.257C515.975 256.257 515.975 256.257 515.975 256.257C515.975 256.257 515.975 256.257 515.975 256.257C515.975 256.257 515.975 256.257 515.975 256.257C515.975 256.257 515.975 256.257 515.975 256.257C515.975 256.257 515.975 256.257 515.975 256.257C515.975 256.257 515.975 256.257 515.975 256.257C515.975 256.257 515.975 256.257 515.975 256.257C515.975 256.257 515.975 256.257 515.975 256.257C515.975 256.257 515.975 256.257 515.975 256.257C515.975 256.257 515.975 256.257 515.975 256.257C515.975 256.257 515.975 256.257 515.975 256.257C515.975 256.257 515.975 256.257 515.975 256.257C515.975 256.257 515.975 256.257 515.975 256.257C515.975 256.257 515.975 256.257 515.975 256.257C515.975 256.257 515.975 256.257 515.975 256.257C515.975 256.257 515.975 256.257 515.975 256.257C515.975 256.257 515.975 256.257 515.975 256.257C515.975 256.257 515.975 256.257 515.975 256.257C515.975 256.257 515.975 256.257 515.975 256.257C515.975 256.257 515.975 256.257 515.975 256.257C515.975 256.257 515.975 256.257 515.975 256.257C515.975 256.257 515.975 256.257 515.975 256.257C515.975 256.257 515.975 256.257 515.975 256.257C515.975 256.257 515.975 256.257 515.975 256.257C515.975 256.257 515.975 256.257 515.975 256.257C515.975 256.257 515.975 256.257 515.975 256.257C515.975 256.257 515.975 256.257 515.975 256.257C515.975 256.257 515.975 256.257 515.975 256.257C515.975 256.257 515.975 256.257 515.975 256.257C515.975 256.257 515.975 256.257 515.975 256.257C515.975 257.226 515.975 258.196 515.975 257.226ZM517.048 257.223C516.997 240.317 516.997 223.384 516.997 206.437C516.997 189.491 516.997 172.529 516.945 155.568L515.006 155.574C515.058 172.532 515.058 189.49 515.058 206.437C515.058 223.384 515.058 240.319 515.109 257.229L517.048 257.223Z" fill="black" mask="url(#path-1-inside-1_1212_4)"/>
</g>
<defs>
<filter id="filter0_d_1212_4" x="0.0788574" y="0.61792" width="520" height="521.642" filterUnits="userSpaceOnUse" color-interpolation-filters="sRGB">
<feFlood flood-opacity="0" result="BackgroundImageFix"/>
<feColorMatrix in="SourceAlpha" type="matrix" values="0 0 0 0 0 0 0 0 0 0 0 0 0 0 0 0 0 0 127 0" result="hardAlpha"/>
<feOffset dy="4"/>
<feGaussianBlur stdDeviation="2"/>
<feComposite in2="hardAlpha" operator="out"/>
<feColorMatrix type="matrix" values="0 0 0 0 0 0 0 0 0 0 0 0 0 0 0 0 0 0 0.25 0"/>
<feBlend mode="normal" in2="BackgroundImageFix" result="effect1_dropShadow_1212_4"/>
<feBlend mode="normal" in="SourceGraphic" in2="effect1_dropShadow_1212_4" result="shape"/>
</filter>
<radialGradient id="paint0_radial_1212_4" cx="0" cy="0" r="1" gradientUnits="userSpaceOnUse" gradientTransform="translate(260.079 257.439) rotate(90) scale(256.821 256)">
<stop stop-opacity="0"/>
<stop offset="1"/>
</radialGradient>
</defs>
</svg>
