<svg width="722" height="210" viewBox="0 0 722 210" fill="none" xmlns="http://www.w3.org/2000/svg">
<path d="M55.1491 207.068C39.9648 207.068 26.9819 201.668 16.1816 190.887C5.40013 180.086 0 167.085 0 151.9V2.89795H224.962V151.9C224.962 167.085 219.562 180.086 208.761 190.868C197.98 201.668 184.997 207.049 169.794 207.049H55.1491V207.068Z" fill="#EEEEEE"/>
<path d="M487.479 79.4027C487.479 92.4796 482.851 103.637 473.612 112.876C464.355 122.133 453.254 126.762 440.289 126.762H361.677V203.888H262.537V0H440.308C453.272 0 464.393 4.62869 473.631 13.8861C482.888 23.1434 487.498 34.2448 487.498 47.2277V79.4215L487.479 79.4027Z" fill="#EEEEEE"/>
<path fill-rule="evenodd" clip-rule="evenodd" d="M539.787 3.76318H714.756C717.07 3.76318 717.898 5.34371 717.898 7.69569V182.626C717.898 184.978 717.07 185.768 714.756 185.768H676.108V75.4514L548.48 203.869L518.544 173.914L646.191 46.2869H535.817V7.69569C535.817 5.36253 537.473 3.76318 539.806 3.76318H539.787Z" fill="#E20000" stroke="#E20000" stroke-width="7.52632" stroke-miterlimit="10"/>
</svg>
