<?xml version="1.0" encoding="UTF-8"?>
<svg id="Layer_2" data-name="Layer 2" xmlns="http://www.w3.org/2000/svg" viewBox="0 0 61.06 60.99">
  <g id="Layer_1-2" data-name="Layer 1">
    <path d="M30.2,.02c15.42,0,28.2,10.87,30.48,25.76,1.17,7.64-.37,14.78-4.6,21.3-.96,1.48-2.35,1.87-3.63,1.04-1.21-.78-1.51-2.23-.6-3.65,2.64-4.14,4.1-8.65,4.18-13.54,.09-5.31-1.31-10.26-4.36-14.65-4.27-6.16-10.11-9.95-17.56-11.02C20.2,3.25,7.73,12.89,5.45,26.01c-1.18,6.77,.19,13.04,3.99,18.77,.78,1.18,.7,1.06,1.66,0,1.63-1.79,1.91-3.43,1.08-5.88-1.87-5.52,.16-10.33,3.89-14.48,4.46-4.98,10.3-7.47,16.67-8.92,3.36-.77,6.78-1.15,10.23-1.19,2.29-.02,3.33,.96,3.27,3.23-.21,7.65-1.56,15.03-5.71,21.63-2.39,3.78-5.45,6.89-9.65,8.66-2.08,.88-4.25,1.16-6.5,.77-1.73-.3-2.7-1.49-2.43-3.03,.24-1.4,1.5-2.17,3.15-1.92,2.02,.3,3.85-.18,5.53-1.29,4.47-2.96,7.01-7.31,8.63-12.27,1.02-3.13,1.51-6.38,1.85-9.64,.06-.58,.02-1.06-.75-.99-5.67,.56-11.19,1.64-16.14,4.68-2.42,1.49-4.49,3.36-6.04,5.77-1.24,1.93-1.77,4.04-1.54,6.33,.04,.39,.04,.92,.37,1.08,.43,.21,.65-.33,.91-.59,3.29-3.29,6.95-6.11,10.92-8.51,1.29-.78,2.47-.7,3.36,.2,.78,.79,.94,1.97,.4,2.95-.3,.54-.78,.89-1.29,1.19-6.82,4.11-12.34,9.58-16.85,16.12-.55,.79-.54,1.2,.24,1.8,4.22,3.25,8.94,5.1,14.29,5.44,5.04,.31,9.72-.78,14.12-3.22,.34-.19,.7-.39,1.07-.52,1.22-.43,2.47,.06,3.04,1.16,.62,1.19,.27,2.52-.95,3.3-2.42,1.54-5.06,2.62-7.83,3.34-15.7,4.06-31.41-4.18-36.71-19.52C-4.53,22.35,6.97,3.87,24.91,.5c1.87-.35,3.75-.56,5.29-.48Z"/>
  </g>
</svg>