<?xml version="1.0" encoding="UTF-8"?>
<svg id="Layer_2" data-name="Layer 2" xmlns="http://www.w3.org/2000/svg" viewBox="0 0 64 64">
  <defs>
    <style>
      .cls-1 {
        fill: #fff;
      }

      .cls-2 {
        fill: none;
      }
    </style>
  </defs>
  <g id="Layer_1-2" data-name="Layer 1">
    <g>
      <path class="cls-1" d="M36.21,5.73c4.09,0,8.17-.03,12.26,0,5.3,.05,9.03,3.28,9.75,8.38,.7,4.94-3.51,9.97-8.53,10.17-1.11,.04-2.23,.05-3.34,0-.81-.03-1.11,.23-1.11,1.08,.03,5.5,.03,10.99,0,16.49,0,.75,.31,1.11,.94,1.44,2.83,1.53,4.36,3.99,4.28,7.16-.08,3.26-1.74,5.7-4.75,7.1-3.59,1.66-8.03,.3-9.94-3.19-.65-1.18-1.41-1.35-2.57-1.34-5.03,.04-9.19-2.74-10.95-7.29-1.08-2.78-1.09-5.62,.1-8.36,2.22-5.15,4.41-10.31,6.84-15.36,2.44-5.08,6.65-7.84,12.28-8.35,.92-.08,1.85-.1,2.78-.12,.69-.02,1.01,.31,.99,1.02-.02,1.08,.02,2.15,0,3.23-.02,.69,.2,1.04,.95,1.01,.96-.04,1.93,.02,2.9-.02,2.01-.09,3.47-1.46,3.64-3.39,.18-2.01-1.02-3.63-3.03-4.04-.61-.13-1.25-.19-1.88-.19-7.76-.01-15.53-.01-23.29,0-2.63,0-3.36,.52-3.86,3.13-1.22,6.3-2.36,12.61-3.54,18.92-.81,4.3-1.59,8.61-2.47,12.89-.22,1.05,.05,1.36,1.05,1.3,.81-.05,1.63,0,2.45,0,.65,0,.95,.32,.95,.96,0,1.19,0,2.38,0,3.57,0,.7-.3,1.03-1,1.03-3.79,0-7.58,0-11.37,0-.68,0-1.03-.29-1.02-1,.01-1.15,.02-2.3,0-3.45-.02-.82,.38-1.09,1.16-1.11,1.96-.06,2-.08,2.36-1.96,1.28-6.7,2.53-13.41,3.79-20.12,.79-4.19,1.55-8.39,2.37-12.57,.86-4.42,3.93-6.97,8.46-7.01,4.12-.03,8.25,0,12.37,0Zm3.54,25.56c0-3.49,0-6.98,0-10.47,0-1.29-.12-1.37-1.32-.79-2.06,.99-3.56,2.55-4.49,4.62-2.19,4.87-4.35,9.77-6.49,14.66-.65,1.49-.68,3.03-.08,4.55,1.09,2.74,4.34,4.38,7.24,3.7,.44-.1,.58-.42,.75-.75,.8-1.57,1.95-2.81,3.56-3.55,.7-.32,.85-.8,.85-1.5-.02-3.49-.01-6.98-.01-10.47Zm5.17,19.06c.02-1.42-1-2.46-2.43-2.47-1.41-.01-2.39,.92-2.43,2.32-.04,1.46,.91,2.5,2.34,2.55,1.39,.04,2.5-1.01,2.52-2.4Z"/>
      <rect class="cls-2" width="64" height="64"/>
    </g>
  </g>
</svg>