<?xml version="1.0" encoding="UTF-8"?>
<svg id="Layer_2" data-name="Layer 2" xmlns="http://www.w3.org/2000/svg" viewBox="0 0 64 64">
  <defs>
    <style>
      .cls-1 {
        fill: #fff;
      }

      .cls-2 {
        fill: none;
      }
    </style>
  </defs>
  <g id="Layer_1-2" data-name="Layer 1">
    <g>
      <rect class="cls-2" width="64" height="64"/>
      <path class="cls-1" d="M28.61,57.68c-4.91,0-9.82,0-14.73,0-1.42,0-2.25-.94-2.06-2.28,.13-.91,.85-1.52,2.04-1.62,.83-.07,1.63-.21,2.36-.62,2.03-1.12,2.88-2.91,2.89-5.14,.02-4.09,0-8.17,0-12.26,0-3.31,2.32-5.63,5.64-5.66,1.4-.01,2.81-.06,4.21,.02,.97,.06,1.16-.32,1.15-1.21-.04-5.67-.02-11.34-.02-17.01,0-2.84,2.12-5.26,4.82-5.55,2.94-.32,5.5,1.46,6.15,4.28,.11,.47,.12,.97,.12,1.45,0,5.61,0,11.22,0,16.83q0,1.19,1.22,1.19c1.49,0,2.99-.02,4.48,.01,2.78,.05,5.23,2.42,5.25,5.2,.05,4.57,.07,9.15,0,13.72-.08,4.66-4.31,8.61-9.19,8.64-4.79,.03-9.57,0-14.36,0Zm7.08-16.47c-3.93,0-7.87,.02-11.8-.01-.75,0-1.01,.22-.99,.99,.05,1.8-.03,3.6,.03,5.4,.07,2.03-.28,3.95-1.36,5.69-.3,.48-.18,.63,.36,.63,3.58-.05,5.98-1.71,6.35-5.42,.13-1.26,.88-2.02,1.94-1.99,1.09,.03,1.84,.91,1.85,2.18,.01,1.63-.5,3.11-1.29,4.52-.13,.23-.56,.65,.13,.68,1.55,.06,3.13,.13,4.62-.37,2.38-.8,3.5-2.6,3.73-5.03,.12-1.25,.89-2.01,1.95-1.98,1.09,.03,1.83,.92,1.84,2.19,.01,1.67-.51,3.18-1.35,4.59-.3,.5-.16,.66,.37,.62,.49-.04,.97-.11,1.45-.15,2.39-.19,4.37-2,4.74-4.36,.36-2.36,.05-4.75,.18-7.12,.05-.89-.3-1.07-1.11-1.06-3.87,.03-7.74,.02-11.62,.02Zm-.04-3.78c3.93,0,7.87,0,11.8,0,.36,0,.81,.14,.94-.45,.42-1.88-.5-3.08-2.4-3.08-6.89,0-13.78,0-20.67,0-1.79,0-2.36,.63-2.43,2.43-.03,.9,.28,1.13,1.15,1.12,3.87-.04,7.74-.02,11.62-.02Zm-1.76-16.77c0,2.86,.01,5.73,0,8.59,0,.62,.18,.91,.83,.86,.55-.04,1.1-.05,1.64,0,.85,.09,1.09-.24,1.08-1.08-.03-5.48-.02-10.96-.02-16.45,0-.24,0-.49-.02-.73-.13-1-.83-1.69-1.71-1.71-.91-.02-1.65,.7-1.78,1.75-.03,.27-.02,.55-.02,.82,0,2.65,0,5.3,0,7.95Z"/>
    </g>
  </g>
</svg>