<?xml version="1.0" encoding="UTF-8"?>
<svg id="Layer_2" data-name="Layer 2" xmlns="http://www.w3.org/2000/svg" viewBox="0 0 64 64">
  <defs>
    <style>
      .cls-1 {
        fill: #fff;
      }

      .cls-2 {
        fill: none;
      }
    </style>
  </defs>
  <g id="Layer_1-2" data-name="Layer 1">
    <g>
      <g>
        <path class="cls-1" d="M39.72,32.04c0,8.19,0,16.38,0,24.57,0,1.86-.9,2.47-2.68,1.87-3.78-1.28-7.58-2.53-11.37-3.79-1.41-.47-1.72-.9-1.72-2.36,0-13.55,0-27.1,0-40.65,0-1.47,.31-1.89,1.72-2.36,3.84-1.29,7.69-2.55,11.52-3.86,1.22-.42,2.57-.03,2.55,1.85-.06,8.25-.03,16.49-.03,24.74Zm-3.27-.04c0-7.25,0-14.49,0-21.74,0-1.02,0-1.03-.99-.71-2.4,.79-4.78,1.63-7.19,2.37-.81,.25-1.06,.63-1.06,1.47,.03,10.33,.02,20.66,.02,30.98,0,2.17,.01,4.33,0,6.5,0,.58,.15,.91,.74,1.1,2.51,.8,5,1.66,7.5,2.48,.98,.32,.99,.31,.99-.72,0-7.25,0-14.49,0-21.74Z"/>
        <path class="cls-1" d="M52.84,33.68c-1.29,0-2.48,0-3.66,0-.42,0-.83,.01-1.25,0-1.16-.05-1.86-.7-1.85-1.7,.01-.96,.7-1.61,1.82-1.64,1.3-.03,2.61,0,3.91-.01,.3,0,.6,0,1,0-.24-.58-.65-.83-.95-1.16-.75-.82-.82-1.77-.16-2.46,.69-.73,1.67-.71,2.51,.11,1.31,1.28,2.61,2.57,3.89,3.89,.81,.83,.82,1.75,.02,2.58-1.3,1.33-2.61,2.65-3.95,3.94-.81,.78-1.76,.79-2.45,.09-.67-.68-.62-1.64,.13-2.46,.31-.34,.71-.59,.98-1.18Z"/>
        <path class="cls-1" d="M49.88,16.6c-.42-.38-.83-.7-1.18-1.08-.74-.79-.75-1.69-.08-2.37,.68-.69,1.61-.71,2.38,.03,1.38,1.33,2.73,2.69,4.06,4.06,.72,.75,.72,1.71-.01,2.46-1.31,1.36-2.65,2.69-4,4-.73,.71-1.76,.71-2.4,.08-.69-.68-.68-1.57,.03-2.38,.36-.41,.75-.79,1.28-1.35-1.2,0-2.19,0-3.17,0-.69,0-1.39,0-2.08,0-1.04-.01-1.76-.67-1.76-1.59,0-.92,.7-1.64,1.72-1.67,1.41-.04,2.83,0,4.24-.02,.27,0,.55,.08,.98-.18Z"/>
        <path class="cls-1" d="M49.94,43.62c-.41-.32-.86-.61-1.21-.98-.78-.82-.79-1.74-.08-2.44,.64-.62,1.67-.61,2.4,.09,1.35,1.31,2.69,2.65,4,4,.73,.75,.72,1.71,0,2.46-1.33,1.38-2.68,2.73-4.06,4.06-.77,.74-1.7,.71-2.38,.02-.67-.69-.65-1.59,.09-2.37,.34-.36,.75-.66,1.1-.96-.21-.41-.46-.29-.66-.29-1.41-.01-2.83,0-4.24-.01-1.2-.01-1.97-.69-1.96-1.69,0-.96,.75-1.58,1.94-1.58,1.61,0,3.21,0,4.82,0,.08-.11,.16-.21,.24-.32Z"/>
        <path class="cls-1" d="M6.91,22.01c.87,0,1.63,.8,1.62,1.67-.01,.88-.79,1.65-1.66,1.64-.9-.01-1.61-.76-1.6-1.67,0-.91,.75-1.65,1.64-1.64Z"/>
        <path class="cls-1" d="M5.27,40.35c-.01-.92,.7-1.66,1.6-1.68,.87-.02,1.65,.75,1.66,1.63,.01,.88-.75,1.66-1.62,1.68-.89,.01-1.63-.72-1.64-1.63Z"/>
        <path class="cls-1" d="M8.93,31.96c.02-.91,.75-1.63,1.64-1.61,.85,.02,1.64,.85,1.61,1.69-.03,.86-.84,1.64-1.69,1.61-.91-.03-1.58-.76-1.56-1.69Z"/>
        <path class="cls-1" d="M18.86,28.9c-.98,0-1.6-.62-1.59-1.61,0-.91,.74-1.66,1.61-1.64,.86,.02,1.64,.81,1.65,1.66,0,.87-.74,1.59-1.66,1.59Z"/>
        <path class="cls-1" d="M17.27,36.72c-.01-.99,.6-1.61,1.57-1.62,.92-.01,1.67,.69,1.68,1.57,0,.85-.77,1.65-1.63,1.68-.87,.03-1.62-.72-1.63-1.62Z"/>
        <path class="cls-1" d="M14.66,19.55c-.93-.01-1.58-.7-1.56-1.66,.01-.9,.77-1.64,1.64-1.6,.88,.04,1.62,.82,1.61,1.68-.01,.88-.78,1.59-1.69,1.58Z"/>
        <path class="cls-1" d="M14.72,44.44c.9,.02,1.66,.77,1.63,1.64-.02,.88-.8,1.63-1.67,1.63-.88,0-1.59-.75-1.59-1.66,0-.95,.68-1.62,1.62-1.6Z"/>
        <path class="cls-1" d="M30.26,32.02c-.01-.92,.7-1.66,1.6-1.68,.87-.02,1.65,.75,1.66,1.63,.01,.88-.75,1.67-1.62,1.68-.89,.01-1.63-.72-1.64-1.63Z"/>
        <path class="cls-1" d="M31.87,19.56c-.94,0-1.61-.69-1.61-1.63,0-.9,.75-1.64,1.63-1.63,.87,0,1.64,.79,1.63,1.66-.01,.89-.76,1.61-1.66,1.61Z"/>
        <path class="cls-1" d="M30.26,46.03c.02-.94,.7-1.6,1.65-1.59,.9,.01,1.64,.77,1.61,1.65-.03,.89-.81,1.64-1.68,1.62-.89-.02-1.6-.77-1.59-1.68Z"/>
      </g>
      <rect class="cls-2" width="64" height="64"/>
    </g>
  </g>
</svg>