<?xml version="1.0" encoding="UTF-8"?>
<svg id="Layer_2" data-name="Layer 2" xmlns="http://www.w3.org/2000/svg" viewBox="0 0 64 64">
  <defs>
    <style>
      .cls-1 {
        fill: #fff;
      }

      .cls-2 {
        fill: none;
      }
    </style>
  </defs>
  <g id="Layer_1-2" data-name="Layer 1">
    <g>
      <g>
        <path class="cls-1" d="M52,38.89v-.97c0-6.48,0-12.96,0-19.43,0-.99-.04-1.98-.42-2.91-.78-1.91-2.19-3.06-4.23-3.41-.36-.06-.66-.17-.86-.5-.6-.99-1.28-1.94-1.99-2.86-.18-.24-.43-.54,.16-.58,2.46-.13,4.85,.03,6.96,1.5,2.69,1.88,4.19,4.42,4.19,7.75,.01,9.69,0,19.38,0,29.08,0,5.11-4.13,9.24-9.24,9.25-10.88,0-21.76,0-32.64,0-2.23,0-3.93-.96-5-2.88-1.11-1.98-.98-3.99,.26-5.9,.28-.42,.29-.69,0-1.1-.65-.93-.96-1.98-.96-3.13,.01-9.67,0-19.33,0-29,0-3.1,2.46-5.55,5.55-5.57,1.78,0,3.56,0,5.34,0,.21,0,.48-.11,.6,.15,.09,.21-.13,.35-.24,.51-.61,.87-1.23,1.73-1.82,2.62-.24,.37-.51,.55-.97,.53-.89-.03-1.78-.03-2.67,0-1.22,.04-1.97,.74-1.97,1.95-.02,7.62-.01,15.23-.02,22.85,0,.39,.09,.57,.51,.44,.5-.16,1.03-.12,1.55-.12,10.76,0,21.51,.01,32.27-.01,2.03,0,3.83,.57,5.64,1.75Zm-21.75,13.1c5.14,0,10.28,0,15.42,0,.65,0,1.28-.05,1.92-.16,2.51-.41,4.67-3.21,4.39-5.65-.38-3.2-2.61-5.21-5.85-5.22-10.58,0-21.16,0-31.74,0-.37,0-.74,.02-1.1,.14-.72,.25-1.24,.96-1.23,1.69,.01,.71,.51,1.39,1.2,1.63,.43,.15,.87,.15,1.32,.15,10.09,0,20.17,0,30.26,0,.22,0,.44,0,.67,0q1.08,0,1.09,1.12c0,.52,0,1.04,0,1.56q0,1.13-1.15,1.13c-10.31,0-20.62,0-30.92,0-1.55,0-2.42,.63-2.45,1.77-.03,1.15,.88,1.84,2.46,1.84,5.24,0,10.48,0,15.72,0Z"/>
        <path class="cls-1" d="M24.55,23.35c-3.55,.18-6.77-3.86-5.16-7.57,.94-2.18,2.35-4.05,3.82-5.88,.34-.42,.7-.83,1.04-1.25,.24-.3,.44-.34,.7-.02,1.77,2.1,3.47,4.24,4.7,6.72,1.77,3.57-.66,7.22-3.78,7.88-.43,.09-.88,.09-1.32,.13Zm1.81-5.71c-.28-.99-.91-1.98-1.6-2.93-.17-.24-.34,0-.45,.17-.5,.76-.99,1.53-1.33,2.38-.27,.68-.09,1.26,.43,1.74,.56,.52,1.23,.63,1.92,.32,.62-.28,1-.78,1.04-1.69Z"/>
        <path class="cls-1" d="M39.4,23.32c-3.57,.22-6.78-3.84-5.19-7.53,.95-2.2,2.37-4.09,3.86-5.94,.34-.42,.7-.83,1.04-1.25,.23-.29,.42-.26,.65,0,1.79,2.12,3.51,4.27,4.73,6.78,1.72,3.53-.69,7.15-3.78,7.84-.44,.1-.88,.07-1.33,.09Zm-1.71-5.67c.01,.87,.38,1.37,1,1.66,.65,.31,1.3,.23,1.87-.24,.54-.45,.79-1.03,.54-1.71-.32-.91-.86-1.72-1.38-2.52-.12-.19-.31-.34-.46-.11-.65,.95-1.3,1.91-1.56,2.92Z"/>
      </g>
      <rect class="cls-2" width="64" height="64"/>
    </g>
  </g>
</svg>