<?xml version="1.0" encoding="UTF-8"?>
<svg id="Layer_2" data-name="Layer 2" xmlns="http://www.w3.org/2000/svg" viewBox="0 0 64 64">
  <defs>
    <style>
      .cls-1 {
        fill: #fff;
      }

      .cls-2 {
        fill: none;
      }
    </style>
  </defs>
  <g id="Layer_1-2" data-name="Layer 1">
    <g>
      <g>
        <path class="cls-1" d="M9.26,42.37c0-3.1,.09-6.2-.03-9.29-.1-2.5,.73-4.58,2.26-6.45,.34-.41,.48-.83,.46-1.36-.02-1.23-.01-2.46,0-3.69,0-1.11,.47-1.59,1.58-1.64q1-.05,1-1.03c0-.85,0-1.7,0-2.55,.02-1.16,.55-1.7,1.7-1.7,1.58,0,3.17,0,4.75,0,1.2,0,1.7,.52,1.71,1.75,0,.97,.02,1.94,0,2.91,0,.46,.17,.62,.62,.64,1.73,.08,2.06,.45,2.06,2.21,0,.24,.02,.47,0,.71-.17,1.95,.07,3.73,1.41,5.34,.95,1.14,1.2,2.61,1.19,4.14-.04,6.88-.02,13.76-.02,20.64,0,1.38-.39,1.77-1.77,1.77-5.06,0-10.12,0-15.18,0-1.31,0-1.75-.43-1.75-1.74,0-3.55,0-7.09,0-10.64Zm2.79-.79c0,3.21,.01,6.43,0,9.64,0,.55,.17,.74,.73,.74,3.9-.02,7.8-.02,11.7,0,.52,0,.71-.17,.7-.7-.03-1.28-.04-2.55,0-3.83,.02-.65-.23-.8-.83-.79-1.82,.03-3.64,.01-5.46,.01-1.17,0-1.68-.5-1.68-1.68,0-2.43,0-4.87,0-7.3,0-1.25,.51-1.75,1.77-1.75,1.84,0,3.69-.01,5.53,0,.49,0,.68-.17,.66-.66-.02-.83-.06-1.66,0-2.48,.14-1.68-.59-3.02-1.54-4.3-.22-.29-.47-.42-.84-.42-2.79,0-5.58,0-8.37,0-.27,0-.52,0-.7,.25-.93,1.22-1.71,2.48-1.69,4.11,.04,3.05,.01,6.1,.01,9.15Zm7.95-.29c0,.66,.01,1.32,0,1.98-.01,.4,.11,.61,.56,.61,1.34-.01,2.69-.01,4.03,0,.43,0,.59-.18,.58-.59-.01-1.32-.01-2.64,0-3.96,0-.4-.12-.61-.57-.61-1.34,.01-2.69,.01-4.03,0-.43,0-.59,.18-.57,.59,.02,.66,0,1.32,0,1.98Zm-1.35-16c.76,0,1.51,0,2.27,0,1.69,0,1.66,0,1.68-1.69,0-.62-.19-.83-.81-.82-1.77,.03-3.54,0-5.31,.02-2.02,.02-1.71-.34-1.75,1.84,0,.5,.18,.66,.67,.65,1.09-.02,2.17,0,3.26,0Zm-.04-7.84c-.14,0-.28,.02-.42,0-.66-.09-.92,.14-.89,.85,.08,1.91-.32,1.61,1.86,1.66,.54,.01,.8-.16,.74-.73-.02-.16,0-.33,0-.49-.01-1.43,.15-1.27-1.29-1.28Z"/>
        <path class="cls-1" d="M54.78,19.96c-.07,2.56-1.12,4.51-3.27,5.82-.51,.31-.83,.65-1.02,1.24-.76,2.41-3.14,3.97-5.56,3.73-2.57-.26-4.56-2.2-4.87-4.76-.04-.32-.14-.51-.44-.65-1.79-.86-3.55-1.77-5.35-2.61-1.62-.75-3.31-1.23-5.11-1.33-.74-.04-1.28-.63-1.3-1.34-.02-.66,.47-1.37,1.16-1.4,3.42-.11,6.25-1.84,9.21-3.24,1.08-.51,1.8-1.04,2.1-2.37,.52-2.31,2.69-3.79,4.97-3.8,2.43-.01,4.45,1.41,5.19,3.74,.19,.61,.51,.98,1.05,1.31,2.13,1.29,3.16,3.23,3.25,5.66Zm-19.55,.08c2.13,1.03,4.12,2.05,6.16,2.96,1.37,.62,1.46,.65,1.45,2.13-.02,1.57,.99,2.72,2.48,2.82,1.28,.09,2.53-.99,2.63-2.45,.07-1.01,.53-1.5,1.45-1.82,1.88-.66,2.88-2.53,2.46-4.48-.31-1.43-1.19-2.4-2.57-2.87-.84-.28-1.34-.76-1.31-1.69,0-.16-.05-.33-.08-.49-.24-1.12-1.12-1.94-2.23-2.09-1.04-.13-2.07,.49-2.59,1.51-.31,.61-.24,1.24-.23,1.87,.01,.64-.23,1.13-.83,1.35-1.78,.65-3.41,1.62-5.12,2.43-.52,.25-1.05,.5-1.68,.81Z"/>
      </g>
      <rect class="cls-2" width="64" height="64"/>
    </g>
  </g>
</svg>