<?xml version="1.0" encoding="UTF-8"?>
<svg id="Layer_2" data-name="Layer 2" xmlns="http://www.w3.org/2000/svg" viewBox="0 0 64 64">
  <defs>
    <style>
      .cls-1 {
        fill: #fff;
      }

      .cls-2 {
        fill: none;
      }
    </style>
  </defs>
  <g id="Layer_1-2" data-name="Layer 1">
    <g>
      <path class="cls-1" d="M26.64,55.74c-3.52,0-7.05,0-10.57,0-4.26-.01-7.78-3.53-7.79-7.8-.01-4.6,0-9.2,0-13.8,0-2.05,.84-3.67,2.51-4.82,.5-.35,.68-.72,.66-1.3-.02-.73-.1-1.48,.08-2.2,.45-1.76,1.94-2.82,3.97-2.84q1.15-.01,1.15-1.17c0-2.45,.03-4.89,0-7.34-.06-4.05,3.29-6.34,6.2-6.21,3.39,.15,6.78,.02,10.17,.04,2.51,.01,4.31,1.19,5.37,3.45,.26,.55,.59,.71,1.15,.7,4.58-.02,9.15,0,13.73,0,.42,0,.84-.01,1.25,.11,.73,.22,1.16,.7,1.2,1.48,.05,.8-.34,1.37-1.08,1.65-.38,.15-.77,.13-1.17,.13-4.47,0-8.94,0-13.41,0-1.08,0-1.09,0-1.11,1.07-.03,2.04-.77,3.71-2.65,4.67-1.5,.76-3.11,.82-4.67,.26-1.52-.54-2.22-1.78-2.35-3.34-.05-.55-.19-1.03-.68-1.35-.92-.6-2.17-.03-2.23,1.08-.07,1.39-.02,2.79-.04,4.18,0,.65,.44,.6,.87,.6,3.6,0,7.2,0,10.81,0,2.3,0,3.76,1.29,4.05,3.57,.07,.57,.06,1.15,.05,1.73,0,.43,.13,.73,.51,.98,1.81,1.21,2.63,2.97,2.64,5.1,.03,4.36,.06,8.73,.02,13.09-.04,4.03-2.35,7.08-6.04,8.08-.61,.17-1.24,.22-1.87,.22-3.58,0-7.15,0-10.73,0Zm.13-24.14c-4.13,0-8.26,0-12.38,0-1.77,0-2.82,.99-2.83,2.77-.03,4.42-.04,8.84,0,13.25,.03,2.86,1.98,4.82,4.85,4.84,6.89,.04,13.78,.03,20.67,0,1.7,0,3.11-.69,4.08-2.15,.15-.23,.44-.48,.27-.77-.15-.24-.49-.11-.74-.11-5.34,0-10.68,0-16.01,0-2.17,0-3.75-1.57-3.76-3.72-.01-2.47,0-4.94,0-7.41,0-.59,.12-1.15,.39-1.67,.84-1.59,2.25-2.1,3.94-2.1,5.26,0,10.52,0,15.78,0,.88,0,1.02-.18,.8-1.04-.3-1.18-1.23-1.89-2.57-1.89-4.15,0-8.31,0-12.46,0Zm6.41,14.56c2.63,0,5.25-.01,7.88,.01,.59,0,.85-.14,.84-.79-.03-2.23-.03-4.47,0-6.7,.01-.66-.26-.79-.84-.79-5.31,.02-10.61,.02-15.92,0-.71,0-.99,.26-.98,.97,.03,2.05,0,4.1,.01,6.15,0,1,.15,1.15,1.14,1.15,2.63,0,5.25,0,7.88,0Zm-13.16-28.1h0c0,.92-.02,1.84,0,2.76,.05,2.56-.45,2.09,2.23,2.16,.57,.01,.72-.23,.71-.75-.02-1.29-.03-2.58,0-3.86,.07-3.1,2.69-5.27,5.67-4.73,2.16,.39,3.59,1.92,3.92,4.16,.05,.33,.03,.7,.4,.89,1.17,.6,2.6-.23,2.63-1.55,.02-.92,.01-1.84,0-2.76-.02-1.73-1-2.78-2.73-2.8-3.39-.04-6.78-.04-10.17,0-1.64,.02-2.62,1.06-2.65,2.7-.02,1.26,0,2.52,0,3.79Zm6.67,10.14c3.71,0,7.41,0,11.12,0,.3,0,.7,.14,.85-.22,.17-.41,.16-.89,0-1.31-.15-.4-.57-.3-.9-.31-7.36,0-14.72,0-22.08-.01-.77,0-.98,.31-1,1.04-.02,.78,.37,.83,.97,.83,3.68-.02,7.36,0,11.04,0Z"/>
      <rect class="cls-2" width="64" height="64"/>
    </g>
  </g>
</svg>