<?xml version="1.0" encoding="UTF-8"?>
<svg id="Layer_2" data-name="Layer 2" xmlns="http://www.w3.org/2000/svg" viewBox="0 0 52.89 52.88">
  <defs>
    <style>
      .cls-1 {
        fill: #fff;
      }
    </style>
  </defs>
  <g id="Layer_1-2" data-name="Layer 1">
    <path class="cls-1" d="M43.73,32.21c-.09,1.49,.16,3.27-.15,5.04-.12,.68,.41,.83,.84,1.04,3.72,1.86,5.03,7.13,4.46,9.73-.29,1.31-1.22,2.11-2.47,2.17-1.29,.06-2.37-.68-2.79-1.93-.27-.82-.33-1.68-.38-2.53-.04-.67-.21-1.3-.62-1.85-.43-.58-.72-.62-1.11,.09-1.74,3.19-4.28,5.57-7.54,7.18-8.11,3.99-18.12,.86-22.52-7.04-.5-.89-.76-.9-1.31-.03-.34,.55-.46,1.16-.49,1.79-.04,.82-.11,1.65-.38,2.43-.43,1.23-1.52,1.96-2.82,1.88-1.2-.07-2.13-.87-2.41-2.12-.59-2.55,.68-7.71,4.17-9.57,.97-.51,1.08-1.06,1.04-2.08-.13-2.83-.06-5.67-.06-8.5,0-1.37-.23-1.52-1.49-1.02-1.15,.45-1.96,1.29-2.67,2.26-.89,1.21-2.2,1.58-3.39,1.03-1.51-.7-2.1-2.48-1.22-3.93,1.71-2.8,4.21-4.55,7.45-5.03,1.28-.19,1.96-.56,2.4-1.9,1.26-3.87,3.75-6.86,7.24-8.95,.87-.52,.87-.85,.29-1.6-1.33-1.72-1.92-3.74-2-5.89-.06-1.58,.92-2.73,2.4-2.86,1.64-.15,2.75,.67,3.04,2.27,.09,.49,.1,.99,.2,1.47,.5,2.46,2.76,4.13,5.38,4,2.45-.12,4.47-2.05,4.73-4.51,.04-.33,.07-.66,.13-.98,.3-1.6,1.51-2.45,3.16-2.23,1.43,.19,2.34,1.35,2.27,2.88-.1,2.27-.76,4.35-2.18,6.14-.47,.59-.33,.83,.25,1.18,3.84,2.3,6.44,5.59,7.75,9.87,.19,.63,.52,.89,1.17,.95,3.41,.34,6.12,1.9,8.09,4.72,1.05,1.51,.89,3.21-.37,4.13-1.34,.98-3.01,.61-4.09-.94-.72-1.04-1.66-1.78-2.85-2.18-.89-.3-1.14-.13-1.15,.8-.01,1.45,0,2.9,0,4.64Zm-20.06,4.52c0-3.06-.02-6.12,.01-9.18,0-.78-.2-1.12-1.06-1.11-2.34,.05-4.67,.04-7.01,0-.73-.01-.98,.22-.97,.96,.03,2.73-.08,5.47,.04,8.19,.22,5.19,2.72,8.89,7.52,10.95,1.35,.58,1.47,.48,1.47-.94,0-2.96,0-5.92,0-8.89Zm5.57,.05c0,3.06,0,6.12,0,9.18,0,.58,.01,1.08,.87,.83,4.01-1.14,7.58-5.46,7.98-9.57,.32-3.29,.07-6.58,.18-9.86,.02-.69-.23-.92-.92-.91-2.34,.03-4.67,.05-7.01,0-.89-.02-1.12,.32-1.11,1.15,.04,3.06,.01,6.12,.02,9.18Zm-2.82-15.79c3.33,0,6.65,0,9.98,0,1.03,0,1.11-.09,.66-.96-2.24-4.28-5.74-6.65-10.61-6.65-4.87,0-8.36,2.39-10.61,6.66-.38,.72-.24,.97,.61,.96,3.33-.03,6.65-.01,9.98-.01Z"/>
  </g>
</svg>