<?xml version="1.0" encoding="UTF-8"?>
<svg id="Layer_2" data-name="Layer 2" xmlns="http://www.w3.org/2000/svg" viewBox="0 0 64 64">
  <defs>
    <style>
      .cls-1 {
        fill: #fff;
      }

      .cls-2 {
        fill: none;
      }
    </style>
  </defs>
  <g id="Layer_1-2" data-name="Layer 1">
    <g>
      <g>
        <path class="cls-1" d="M58.43,31.99c.2,14.46-11.97,26.5-26.48,26.46-14.41-.04-26.45-12.04-26.38-26.6,.08-14.39,12.09-26.41,26.68-26.29,14.33,.12,26.35,12.04,26.17,26.43Zm-26.41,23.17c12.79,0,23.15-10.34,23.17-23.12,.01-12.84-10.33-23.2-23.16-23.21-12.79,0-23.15,10.34-23.17,23.12-.01,12.84,10.34,23.21,23.16,23.21Z"/>
        <path class="cls-1" d="M49.01,32.05c-.02,9.3-7.72,16.95-17.05,16.94-9.29-.02-16.95-7.73-16.94-17.05,.02-9.3,7.72-16.95,17.05-16.94,9.3,.02,16.96,7.72,16.94,17.05Zm-30.08-2.56c-.47-.03-.43,.37-.46,.63-.53,4.4,.71,8.23,3.77,11.45,.31,.33,.53,.38,.83-.04,1.32-1.85,2.66-3.69,4.01-5.52,.27-.37,.28-.66,.03-1.04-.48-.72-.74-1.54-.82-2.39-.05-.59-.32-.84-.86-1.01-2.01-.63-4.01-1.3-6.02-1.95-.16-.05-.32-.08-.48-.13Zm26.77,2.25c-.03-.36-.08-.98-.13-1.61-.04-.57-.3-.74-.86-.55-2.1,.71-4.21,1.4-6.33,2.07-.4,.13-.57,.34-.61,.75-.1,.88-.31,1.74-.81,2.48-.32,.47-.25,.81,.07,1.25,1.29,1.74,2.57,3.48,3.82,5.26,.37,.53,.6,.56,1.05,.08,2.48-2.67,3.76-5.81,3.8-9.73Zm-13.79,13.92c2.12,.03,4.13-.42,6.04-1.33,.58-.28,.63-.54,.25-1.05-1.31-1.76-2.59-3.54-3.87-5.32-.27-.38-.55-.53-1.04-.38-.83,.26-1.69,.27-2.51,.01-.51-.16-.81-.02-1.11,.39-1.27,1.78-2.56,3.56-3.87,5.32-.41,.54-.24,.78,.3,1.03,1.84,.86,3.77,1.32,5.8,1.32Zm-1.55-23.15c0-.66,0-1.31,0-1.97,0-2.3-.01-2.34-2.25-1.66-3.57,1.08-6.26,3.29-8.1,6.54-.23,.4-.46,.81,.21,1.03,2.19,.7,4.38,1.4,6.56,2.11,.33,.11,.58,.05,.8-.22,.62-.76,1.4-1.31,2.29-1.69,.4-.17,.49-.46,.49-.85,0-1.1,0-2.19,0-3.29Zm3.32-.06c0,1.04,.03,2.08-.01,3.12-.02,.6,.15,.97,.74,1.19,.73,.27,1.35,.75,1.84,1.35,.39,.49,.77,.56,1.35,.37,1.99-.68,4-1.34,6.01-1.96,.72-.22,.75-.54,.42-1.12-1.36-2.4-3.24-4.27-5.69-5.55-1.25-.65-2.55-1.11-3.95-1.34-.56-.09-.73,.1-.72,.65,.03,1.1,0,2.19,0,3.29Zm.79,9.53c0-1.4-1.04-2.43-2.44-2.43-1.4,0-2.44,1.03-2.45,2.42-.01,1.44,1.04,2.49,2.48,2.47,1.39-.01,2.42-1.06,2.41-2.46Z"/>
      </g>
      <rect class="cls-2" width="64" height="64"/>
    </g>
  </g>
</svg>