<?xml version="1.0" encoding="UTF-8"?>
<svg id="Layer_2" data-name="Layer 2" xmlns="http://www.w3.org/2000/svg" viewBox="0 0 64 64">
  <defs>
    <style>
      .cls-1 {
        fill: #fff;
      }

      .cls-2 {
        fill: none;
      }
    </style>
  </defs>
  <g id="Layer_1-2" data-name="Layer 1">
    <g>
      <path class="cls-1" d="M32.05,10.77c3.67,0,7.34,.02,11,0,2.08-.01,3.73,.84,5.07,2.37,2.14,2.44,4.31,4.85,6.42,7.33,2.11,2.49,2.21,5.75,.23,8.36-5.87,7.77-11.76,15.54-17.68,23.27-2.58,3.37-7.65,3.32-10.25-.08-5.85-7.65-11.67-15.32-17.49-23-2.14-2.83-2.08-5.97,.22-8.7,2.15-2.55,4.35-5.05,6.59-7.51,1.24-1.36,2.82-2.06,4.7-2.05,3.72,.02,7.45,0,11.17,0Zm-.08,15.56c-2.04,0-4.09,.02-6.13-.01-.75-.01-.86,.22-.61,.87,.39,1.02,.72,2.06,1.08,3.09,1.8,5.24,3.6,10.48,5.4,15.71,.06,.18,.07,.44,.33,.41,.18-.02,.21-.23,.26-.39,2.17-6.32,4.34-12.65,6.52-18.96,.2-.59,.03-.74-.55-.73-2.1,.02-4.2,0-6.3,0Zm-3.21,22.4s.08-.05,.13-.08c-.43-1.24-.85-2.48-1.28-3.72-2.03-5.92-4.07-11.84-6.09-17.77-.22-.63-.53-.86-1.21-.85-2.52,.04-5.03,.01-7.55,.02-.24,0-.57-.12-.7,.12-.16,.3,.16,.5,.32,.71,2.7,3.57,5.41,7.13,8.12,10.69,2.75,3.63,5.51,7.25,8.26,10.88Zm6.36-.05s.08,.04,.12,.06c.59-.78,1.17-1.55,1.76-2.33,4.87-6.41,9.75-12.82,14.62-19.24,.16-.21,.49-.42,.34-.71-.15-.28-.51-.13-.78-.14-2.41,0-4.81,.04-7.21-.03-.93-.03-1.32,.31-1.6,1.16-1.66,4.95-3.38,9.89-5.07,14.84-.73,2.13-1.45,4.25-2.18,6.38Zm-3.13-25.82c2.04,0,4.08,0,6.12,0,.52,0,.83-.09,.57-.72-.98-2.44-1.95-4.88-2.91-7.33-.17-.43-.43-.59-.89-.59-1.76,.02-3.52,.02-5.29,0-.5,0-.76,.18-.95,.63-1.05,2.44-2.12,4.87-3.21,7.29-.27,.6-.08,.72,.5,.71,2.01-.02,4.03,0,6.04,0Zm-19.94,0c2.93,0,5.61,0,8.29,0,.17,0,.34,0,.5,0,.46,0,.61-.34,.76-.67,1.07-2.43,2.12-4.87,3.2-7.3,.2-.46,.17-.66-.39-.65-1.15,.02-2.29-.02-3.44,.02-.99,.04-1.82,.45-2.48,1.23-.59,.71-1.22,1.38-1.83,2.08-1.49,1.7-2.97,3.4-4.62,5.29Zm39.7-.12c-.12-.38-.43-.64-.68-.92-1.36-1.56-2.75-3.1-4.1-4.66-2.7-3.14-2.35-2.92-6.58-2.91-1,0-1.02,.02-.64,.99,.89,2.29,1.82,4.57,2.69,6.87,.23,.61,.59,.77,1.2,.77,2.49-.03,4.98,0,7.47-.02,.21,0,.45,.08,.65-.11Z"/>
      <rect class="cls-2" width="64" height="64"/>
    </g>
  </g>
</svg>